<?xml version="1.0" encoding="utf-8" standalone="no"?>
<!DOCTYPE svg PUBLIC "-//W3C//DTD SVG 1.1//EN"
  "http://www.w3.org/Graphics/SVG/1.1/DTD/svg11.dtd">
<svg xmlns:xlink="http://www.w3.org/1999/xlink" width="640.417188pt" height="352.482188pt" viewBox="0 0 640.417188 352.482188" xmlns="http://www.w3.org/2000/svg" version="1.1">
 <metadata>
  <rdf:RDF xmlns:dc="http://purl.org/dc/elements/1.1/" xmlns:cc="http://creativecommons.org/ns#" xmlns:rdf="http://www.w3.org/1999/02/22-rdf-syntax-ns#">
   <cc:Work>
    <dc:type rdf:resource="http://purl.org/dc/dcmitype/StillImage"/>
    <dc:date>2026-05-12T18:12:29.900080</dc:date>
    <dc:format>image/svg+xml</dc:format>
    <dc:creator>
     <cc:Agent>
      <dc:title>Matplotlib v3.10.9, https://matplotlib.org/</dc:title>
     </cc:Agent>
    </dc:creator>
   </cc:Work>
  </rdf:RDF>
 </metadata>
 <defs>
  <style type="text/css">*{stroke-linejoin: round; stroke-linecap: butt}</style>
 </defs>
 <g id="figure_1">
  <g id="patch_1">
   <path d="M 0 352.482188 
L 640.417188 352.482188 
L 640.417188 0 
L 0 0 
z
" style="fill: #ffffff"/>
  </g>
  <g id="axes_1">
   <g id="patch_2">
    <path d="M 47.933438 313.958125 
L 623.673437 313.958125 
L 623.673437 22.318125 
L 47.933438 22.318125 
z
" style="fill: #ffffff"/>
   </g>
   <g id="matplotlib.axis_1">
    <g id="xtick_1">
     <g id="line2d_1">
      <path d="M 47.933438 313.958125 
L 47.933438 22.318125 
" clip-path="url(#pd4c76c515d)" style="fill: none; stroke-dasharray: 2.96,1.28; stroke-dashoffset: 0; stroke: #cbd5e1; stroke-opacity: 0.35; stroke-width: 0.8"/>
     </g>
     <g id="line2d_2">
      <defs>
       <path id="me9971a8e4b" d="M 0 0 
L 0 3.5 
" style="stroke: #000000; stroke-width: 0.8"/>
      </defs>
      <g>
       <use xlink:href="#me9971a8e4b" x="47.933438" y="313.958125" style="stroke: #000000; stroke-width: 0.8"/>
      </g>
     </g>
     <g id="text_1">
      <!-- 0 -->
      <g transform="translate(44.752188 328.556563) scale(0.1 -0.1)">
       <defs>
        <path id="DejaVuSans-30" d="M 2034 4250 
Q 1547 4250 1301 3770 
Q 1056 3291 1056 2328 
Q 1056 1369 1301 889 
Q 1547 409 2034 409 
Q 2525 409 2770 889 
Q 3016 1369 3016 2328 
Q 3016 3291 2770 3770 
Q 2525 4250 2034 4250 
z
M 2034 4750 
Q 2819 4750 3233 4129 
Q 3647 3509 3647 2328 
Q 3647 1150 3233 529 
Q 2819 -91 2034 -91 
Q 1250 -91 836 529 
Q 422 1150 422 2328 
Q 422 3509 836 4129 
Q 1250 4750 2034 4750 
z
" transform="scale(0.015625)"/>
       </defs>
       <use xlink:href="#DejaVuSans-30"/>
      </g>
     </g>
    </g>
    <g id="xtick_2">
     <g id="line2d_3">
      <path d="M 119.900938 313.958125 
L 119.900938 22.318125 
" clip-path="url(#pd4c76c515d)" style="fill: none; stroke-dasharray: 2.96,1.28; stroke-dashoffset: 0; stroke: #cbd5e1; stroke-opacity: 0.35; stroke-width: 0.8"/>
     </g>
     <g id="line2d_4">
      <g>
       <use xlink:href="#me9971a8e4b" x="119.900938" y="313.958125" style="stroke: #000000; stroke-width: 0.8"/>
      </g>
     </g>
     <g id="text_2">
      <!-- 25 -->
      <g transform="translate(113.538438 328.556563) scale(0.1 -0.1)">
       <defs>
        <path id="DejaVuSans-32" d="M 1228 531 
L 3431 531 
L 3431 0 
L 469 0 
L 469 531 
Q 828 903 1448 1529 
Q 2069 2156 2228 2338 
Q 2531 2678 2651 2914 
Q 2772 3150 2772 3378 
Q 2772 3750 2511 3984 
Q 2250 4219 1831 4219 
Q 1534 4219 1204 4116 
Q 875 4013 500 3803 
L 500 4441 
Q 881 4594 1212 4672 
Q 1544 4750 1819 4750 
Q 2544 4750 2975 4387 
Q 3406 4025 3406 3419 
Q 3406 3131 3298 2873 
Q 3191 2616 2906 2266 
Q 2828 2175 2409 1742 
Q 1991 1309 1228 531 
z
" transform="scale(0.015625)"/>
        <path id="DejaVuSans-35" d="M 691 4666 
L 3169 4666 
L 3169 4134 
L 1269 4134 
L 1269 2991 
Q 1406 3038 1543 3061 
Q 1681 3084 1819 3084 
Q 2600 3084 3056 2656 
Q 3513 2228 3513 1497 
Q 3513 744 3044 326 
Q 2575 -91 1722 -91 
Q 1428 -91 1123 -41 
Q 819 9 494 109 
L 494 744 
Q 775 591 1075 516 
Q 1375 441 1709 441 
Q 2250 441 2565 725 
Q 2881 1009 2881 1497 
Q 2881 1984 2565 2268 
Q 2250 2553 1709 2553 
Q 1456 2553 1204 2497 
Q 953 2441 691 2322 
L 691 4666 
z
" transform="scale(0.015625)"/>
       </defs>
       <use xlink:href="#DejaVuSans-32"/>
       <use xlink:href="#DejaVuSans-35" transform="translate(63.623047 0)"/>
      </g>
     </g>
    </g>
    <g id="xtick_3">
     <g id="line2d_5">
      <path d="M 191.868438 313.958125 
L 191.868438 22.318125 
" clip-path="url(#pd4c76c515d)" style="fill: none; stroke-dasharray: 2.96,1.28; stroke-dashoffset: 0; stroke: #cbd5e1; stroke-opacity: 0.35; stroke-width: 0.8"/>
     </g>
     <g id="line2d_6">
      <g>
       <use xlink:href="#me9971a8e4b" x="191.868438" y="313.958125" style="stroke: #000000; stroke-width: 0.8"/>
      </g>
     </g>
     <g id="text_3">
      <!-- 50 -->
      <g transform="translate(185.505938 328.556563) scale(0.1 -0.1)">
       <use xlink:href="#DejaVuSans-35"/>
       <use xlink:href="#DejaVuSans-30" transform="translate(63.623047 0)"/>
      </g>
     </g>
    </g>
    <g id="xtick_4">
     <g id="line2d_7">
      <path d="M 263.835938 313.958125 
L 263.835938 22.318125 
" clip-path="url(#pd4c76c515d)" style="fill: none; stroke-dasharray: 2.96,1.28; stroke-dashoffset: 0; stroke: #cbd5e1; stroke-opacity: 0.35; stroke-width: 0.8"/>
     </g>
     <g id="line2d_8">
      <g>
       <use xlink:href="#me9971a8e4b" x="263.835938" y="313.958125" style="stroke: #000000; stroke-width: 0.8"/>
      </g>
     </g>
     <g id="text_4">
      <!-- 75 -->
      <g transform="translate(257.473438 328.556563) scale(0.1 -0.1)">
       <defs>
        <path id="DejaVuSans-37" d="M 525 4666 
L 3525 4666 
L 3525 4397 
L 1831 0 
L 1172 0 
L 2766 4134 
L 525 4134 
L 525 4666 
z
" transform="scale(0.015625)"/>
       </defs>
       <use xlink:href="#DejaVuSans-37"/>
       <use xlink:href="#DejaVuSans-35" transform="translate(63.623047 0)"/>
      </g>
     </g>
    </g>
    <g id="xtick_5">
     <g id="line2d_9">
      <path d="M 335.803438 313.958125 
L 335.803438 22.318125 
" clip-path="url(#pd4c76c515d)" style="fill: none; stroke-dasharray: 2.96,1.28; stroke-dashoffset: 0; stroke: #cbd5e1; stroke-opacity: 0.35; stroke-width: 0.8"/>
     </g>
     <g id="line2d_10">
      <g>
       <use xlink:href="#me9971a8e4b" x="335.803438" y="313.958125" style="stroke: #000000; stroke-width: 0.8"/>
      </g>
     </g>
     <g id="text_5">
      <!-- 100 -->
      <g transform="translate(326.259688 328.556563) scale(0.1 -0.1)">
       <defs>
        <path id="DejaVuSans-31" d="M 794 531 
L 1825 531 
L 1825 4091 
L 703 3866 
L 703 4441 
L 1819 4666 
L 2450 4666 
L 2450 531 
L 3481 531 
L 3481 0 
L 794 0 
L 794 531 
z
" transform="scale(0.015625)"/>
       </defs>
       <use xlink:href="#DejaVuSans-31"/>
       <use xlink:href="#DejaVuSans-30" transform="translate(63.623047 0)"/>
       <use xlink:href="#DejaVuSans-30" transform="translate(127.246094 0)"/>
      </g>
     </g>
    </g>
    <g id="xtick_6">
     <g id="line2d_11">
      <path d="M 407.770938 313.958125 
L 407.770938 22.318125 
" clip-path="url(#pd4c76c515d)" style="fill: none; stroke-dasharray: 2.96,1.28; stroke-dashoffset: 0; stroke: #cbd5e1; stroke-opacity: 0.35; stroke-width: 0.8"/>
     </g>
     <g id="line2d_12">
      <g>
       <use xlink:href="#me9971a8e4b" x="407.770938" y="313.958125" style="stroke: #000000; stroke-width: 0.8"/>
      </g>
     </g>
     <g id="text_6">
      <!-- 125 -->
      <g transform="translate(398.227188 328.556563) scale(0.1 -0.1)">
       <use xlink:href="#DejaVuSans-31"/>
       <use xlink:href="#DejaVuSans-32" transform="translate(63.623047 0)"/>
       <use xlink:href="#DejaVuSans-35" transform="translate(127.246094 0)"/>
      </g>
     </g>
    </g>
    <g id="xtick_7">
     <g id="line2d_13">
      <path d="M 479.738438 313.958125 
L 479.738438 22.318125 
" clip-path="url(#pd4c76c515d)" style="fill: none; stroke-dasharray: 2.96,1.28; stroke-dashoffset: 0; stroke: #cbd5e1; stroke-opacity: 0.35; stroke-width: 0.8"/>
     </g>
     <g id="line2d_14">
      <g>
       <use xlink:href="#me9971a8e4b" x="479.738438" y="313.958125" style="stroke: #000000; stroke-width: 0.8"/>
      </g>
     </g>
     <g id="text_7">
      <!-- 150 -->
      <g transform="translate(470.194688 328.556563) scale(0.1 -0.1)">
       <use xlink:href="#DejaVuSans-31"/>
       <use xlink:href="#DejaVuSans-35" transform="translate(63.623047 0)"/>
       <use xlink:href="#DejaVuSans-30" transform="translate(127.246094 0)"/>
      </g>
     </g>
    </g>
    <g id="xtick_8">
     <g id="line2d_15">
      <path d="M 551.705938 313.958125 
L 551.705938 22.318125 
" clip-path="url(#pd4c76c515d)" style="fill: none; stroke-dasharray: 2.96,1.28; stroke-dashoffset: 0; stroke: #cbd5e1; stroke-opacity: 0.35; stroke-width: 0.8"/>
     </g>
     <g id="line2d_16">
      <g>
       <use xlink:href="#me9971a8e4b" x="551.705938" y="313.958125" style="stroke: #000000; stroke-width: 0.8"/>
      </g>
     </g>
     <g id="text_8">
      <!-- 175 -->
      <g transform="translate(542.162187 328.556563) scale(0.1 -0.1)">
       <use xlink:href="#DejaVuSans-31"/>
       <use xlink:href="#DejaVuSans-37" transform="translate(63.623047 0)"/>
       <use xlink:href="#DejaVuSans-35" transform="translate(127.246094 0)"/>
      </g>
     </g>
    </g>
    <g id="xtick_9">
     <g id="line2d_17">
      <path d="M 623.673437 313.958125 
L 623.673437 22.318125 
" clip-path="url(#pd4c76c515d)" style="fill: none; stroke-dasharray: 2.96,1.28; stroke-dashoffset: 0; stroke: #cbd5e1; stroke-opacity: 0.35; stroke-width: 0.8"/>
     </g>
     <g id="line2d_18">
      <g>
       <use xlink:href="#me9971a8e4b" x="623.673437" y="313.958125" style="stroke: #000000; stroke-width: 0.8"/>
      </g>
     </g>
     <g id="text_9">
      <!-- 200 -->
      <g transform="translate(614.129687 328.556563) scale(0.1 -0.1)">
       <use xlink:href="#DejaVuSans-32"/>
       <use xlink:href="#DejaVuSans-30" transform="translate(63.623047 0)"/>
       <use xlink:href="#DejaVuSans-30" transform="translate(127.246094 0)"/>
      </g>
     </g>
    </g>
    <g id="text_10">
     <!-- Iteration -->
     <g transform="translate(312.473984 342.994531) scale(0.11 -0.11)">
      <defs>
       <path id="DejaVuSans-49" d="M 628 4666 
L 1259 4666 
L 1259 0 
L 628 0 
L 628 4666 
z
" transform="scale(0.015625)"/>
       <path id="DejaVuSans-74" d="M 1172 4494 
L 1172 3500 
L 2356 3500 
L 2356 3053 
L 1172 3053 
L 1172 1153 
Q 1172 725 1289 603 
Q 1406 481 1766 481 
L 2356 481 
L 2356 0 
L 1766 0 
Q 1100 0 847 248 
Q 594 497 594 1153 
L 594 3053 
L 172 3053 
L 172 3500 
L 594 3500 
L 594 4494 
L 1172 4494 
z
" transform="scale(0.015625)"/>
       <path id="DejaVuSans-65" d="M 3597 1894 
L 3597 1613 
L 953 1613 
Q 991 1019 1311 708 
Q 1631 397 2203 397 
Q 2534 397 2845 478 
Q 3156 559 3463 722 
L 3463 178 
Q 3153 47 2828 -22 
Q 2503 -91 2169 -91 
Q 1331 -91 842 396 
Q 353 884 353 1716 
Q 353 2575 817 3079 
Q 1281 3584 2069 3584 
Q 2775 3584 3186 3129 
Q 3597 2675 3597 1894 
z
M 3022 2063 
Q 3016 2534 2758 2815 
Q 2500 3097 2075 3097 
Q 1594 3097 1305 2825 
Q 1016 2553 972 2059 
L 3022 2063 
z
" transform="scale(0.015625)"/>
       <path id="DejaVuSans-72" d="M 2631 2963 
Q 2534 3019 2420 3045 
Q 2306 3072 2169 3072 
Q 1681 3072 1420 2755 
Q 1159 2438 1159 1844 
L 1159 0 
L 581 0 
L 581 3500 
L 1159 3500 
L 1159 2956 
Q 1341 3275 1631 3429 
Q 1922 3584 2338 3584 
Q 2397 3584 2469 3576 
Q 2541 3569 2628 3553 
L 2631 2963 
z
" transform="scale(0.015625)"/>
       <path id="DejaVuSans-61" d="M 2194 1759 
Q 1497 1759 1228 1600 
Q 959 1441 959 1056 
Q 959 750 1161 570 
Q 1363 391 1709 391 
Q 2188 391 2477 730 
Q 2766 1069 2766 1631 
L 2766 1759 
L 2194 1759 
z
M 3341 1997 
L 3341 0 
L 2766 0 
L 2766 531 
Q 2569 213 2275 61 
Q 1981 -91 1556 -91 
Q 1019 -91 701 211 
Q 384 513 384 1019 
Q 384 1609 779 1909 
Q 1175 2209 1959 2209 
L 2766 2209 
L 2766 2266 
Q 2766 2663 2505 2880 
Q 2244 3097 1772 3097 
Q 1472 3097 1187 3025 
Q 903 2953 641 2809 
L 641 3341 
Q 956 3463 1253 3523 
Q 1550 3584 1831 3584 
Q 2591 3584 2966 3190 
Q 3341 2797 3341 1997 
z
" transform="scale(0.015625)"/>
       <path id="DejaVuSans-69" d="M 603 3500 
L 1178 3500 
L 1178 0 
L 603 0 
L 603 3500 
z
M 603 4863 
L 1178 4863 
L 1178 4134 
L 603 4134 
L 603 4863 
z
" transform="scale(0.015625)"/>
       <path id="DejaVuSans-6f" d="M 1959 3097 
Q 1497 3097 1228 2736 
Q 959 2375 959 1747 
Q 959 1119 1226 758 
Q 1494 397 1959 397 
Q 2419 397 2687 759 
Q 2956 1122 2956 1747 
Q 2956 2369 2687 2733 
Q 2419 3097 1959 3097 
z
M 1959 3584 
Q 2709 3584 3137 3096 
Q 3566 2609 3566 1747 
Q 3566 888 3137 398 
Q 2709 -91 1959 -91 
Q 1206 -91 779 398 
Q 353 888 353 1747 
Q 353 2609 779 3096 
Q 1206 3584 1959 3584 
z
" transform="scale(0.015625)"/>
       <path id="DejaVuSans-6e" d="M 3513 2113 
L 3513 0 
L 2938 0 
L 2938 2094 
Q 2938 2591 2744 2837 
Q 2550 3084 2163 3084 
Q 1697 3084 1428 2787 
Q 1159 2491 1159 1978 
L 1159 0 
L 581 0 
L 581 3500 
L 1159 3500 
L 1159 2956 
Q 1366 3272 1645 3428 
Q 1925 3584 2291 3584 
Q 2894 3584 3203 3211 
Q 3513 2838 3513 2113 
z
" transform="scale(0.015625)"/>
      </defs>
      <use xlink:href="#DejaVuSans-49"/>
      <use xlink:href="#DejaVuSans-74" transform="translate(29.492188 0)"/>
      <use xlink:href="#DejaVuSans-65" transform="translate(68.701172 0)"/>
      <use xlink:href="#DejaVuSans-72" transform="translate(130.224609 0)"/>
      <use xlink:href="#DejaVuSans-61" transform="translate(171.337891 0)"/>
      <use xlink:href="#DejaVuSans-74" transform="translate(232.617188 0)"/>
      <use xlink:href="#DejaVuSans-69" transform="translate(271.826172 0)"/>
      <use xlink:href="#DejaVuSans-6f" transform="translate(299.609375 0)"/>
      <use xlink:href="#DejaVuSans-6e" transform="translate(360.791016 0)"/>
     </g>
    </g>
   </g>
   <g id="matplotlib.axis_2">
    <g id="ytick_1">
     <g id="line2d_19">
      <path d="M 47.933438 277.999178 
L 623.673437 277.999178 
" clip-path="url(#pd4c76c515d)" style="fill: none; stroke-dasharray: 2.96,1.28; stroke-dashoffset: 0; stroke: #cbd5e1; stroke-opacity: 0.35; stroke-width: 0.8"/>
     </g>
     <g id="line2d_20">
      <defs>
       <path id="m4dc4f83a87" d="M 0 0 
L -3.5 0 
" style="stroke: #000000; stroke-width: 0.8"/>
      </defs>
      <g>
       <use xlink:href="#m4dc4f83a87" x="47.933438" y="277.999178" style="stroke: #000000; stroke-width: 0.8"/>
      </g>
     </g>
     <g id="text_11">
      <!-- 200 -->
      <g transform="translate(21.845938 281.798397) scale(0.1 -0.1)">
       <use xlink:href="#DejaVuSans-32"/>
       <use xlink:href="#DejaVuSans-30" transform="translate(63.623047 0)"/>
       <use xlink:href="#DejaVuSans-30" transform="translate(127.246094 0)"/>
      </g>
     </g>
    </g>
    <g id="ytick_2">
     <g id="line2d_21">
      <path d="M 47.933438 231.489384 
L 623.673437 231.489384 
" clip-path="url(#pd4c76c515d)" style="fill: none; stroke-dasharray: 2.96,1.28; stroke-dashoffset: 0; stroke: #cbd5e1; stroke-opacity: 0.35; stroke-width: 0.8"/>
     </g>
     <g id="line2d_22">
      <g>
       <use xlink:href="#m4dc4f83a87" x="47.933438" y="231.489384" style="stroke: #000000; stroke-width: 0.8"/>
      </g>
     </g>
     <g id="text_12">
      <!-- 250 -->
      <g transform="translate(21.845938 235.288603) scale(0.1 -0.1)">
       <use xlink:href="#DejaVuSans-32"/>
       <use xlink:href="#DejaVuSans-35" transform="translate(63.623047 0)"/>
       <use xlink:href="#DejaVuSans-30" transform="translate(127.246094 0)"/>
      </g>
     </g>
    </g>
    <g id="ytick_3">
     <g id="line2d_23">
      <path d="M 47.933438 184.979591 
L 623.673437 184.979591 
" clip-path="url(#pd4c76c515d)" style="fill: none; stroke-dasharray: 2.96,1.28; stroke-dashoffset: 0; stroke: #cbd5e1; stroke-opacity: 0.35; stroke-width: 0.8"/>
     </g>
     <g id="line2d_24">
      <g>
       <use xlink:href="#m4dc4f83a87" x="47.933438" y="184.979591" style="stroke: #000000; stroke-width: 0.8"/>
      </g>
     </g>
     <g id="text_13">
      <!-- 300 -->
      <g transform="translate(21.845938 188.778809) scale(0.1 -0.1)">
       <defs>
        <path id="DejaVuSans-33" d="M 2597 2516 
Q 3050 2419 3304 2112 
Q 3559 1806 3559 1356 
Q 3559 666 3084 287 
Q 2609 -91 1734 -91 
Q 1441 -91 1130 -33 
Q 819 25 488 141 
L 488 750 
Q 750 597 1062 519 
Q 1375 441 1716 441 
Q 2309 441 2620 675 
Q 2931 909 2931 1356 
Q 2931 1769 2642 2001 
Q 2353 2234 1838 2234 
L 1294 2234 
L 1294 2753 
L 1863 2753 
Q 2328 2753 2575 2939 
Q 2822 3125 2822 3475 
Q 2822 3834 2567 4026 
Q 2313 4219 1838 4219 
Q 1578 4219 1281 4162 
Q 984 4106 628 3988 
L 628 4550 
Q 988 4650 1302 4700 
Q 1616 4750 1894 4750 
Q 2613 4750 3031 4423 
Q 3450 4097 3450 3541 
Q 3450 3153 3228 2886 
Q 3006 2619 2597 2516 
z
" transform="scale(0.015625)"/>
       </defs>
       <use xlink:href="#DejaVuSans-33"/>
       <use xlink:href="#DejaVuSans-30" transform="translate(63.623047 0)"/>
       <use xlink:href="#DejaVuSans-30" transform="translate(127.246094 0)"/>
      </g>
     </g>
    </g>
    <g id="ytick_4">
     <g id="line2d_25">
      <path d="M 47.933438 138.469797 
L 623.673437 138.469797 
" clip-path="url(#pd4c76c515d)" style="fill: none; stroke-dasharray: 2.96,1.28; stroke-dashoffset: 0; stroke: #cbd5e1; stroke-opacity: 0.35; stroke-width: 0.8"/>
     </g>
     <g id="line2d_26">
      <g>
       <use xlink:href="#m4dc4f83a87" x="47.933438" y="138.469797" style="stroke: #000000; stroke-width: 0.8"/>
      </g>
     </g>
     <g id="text_14">
      <!-- 350 -->
      <g transform="translate(21.845938 142.269016) scale(0.1 -0.1)">
       <use xlink:href="#DejaVuSans-33"/>
       <use xlink:href="#DejaVuSans-35" transform="translate(63.623047 0)"/>
       <use xlink:href="#DejaVuSans-30" transform="translate(127.246094 0)"/>
      </g>
     </g>
    </g>
    <g id="ytick_5">
     <g id="line2d_27">
      <path d="M 47.933438 91.960004 
L 623.673437 91.960004 
" clip-path="url(#pd4c76c515d)" style="fill: none; stroke-dasharray: 2.96,1.28; stroke-dashoffset: 0; stroke: #cbd5e1; stroke-opacity: 0.35; stroke-width: 0.8"/>
     </g>
     <g id="line2d_28">
      <g>
       <use xlink:href="#m4dc4f83a87" x="47.933438" y="91.960004" style="stroke: #000000; stroke-width: 0.8"/>
      </g>
     </g>
     <g id="text_15">
      <!-- 400 -->
      <g transform="translate(21.845938 95.759222) scale(0.1 -0.1)">
       <defs>
        <path id="DejaVuSans-34" d="M 2419 4116 
L 825 1625 
L 2419 1625 
L 2419 4116 
z
M 2253 4666 
L 3047 4666 
L 3047 1625 
L 3713 1625 
L 3713 1100 
L 3047 1100 
L 3047 0 
L 2419 0 
L 2419 1100 
L 313 1100 
L 313 1709 
L 2253 4666 
z
" transform="scale(0.015625)"/>
       </defs>
       <use xlink:href="#DejaVuSans-34"/>
       <use xlink:href="#DejaVuSans-30" transform="translate(63.623047 0)"/>
       <use xlink:href="#DejaVuSans-30" transform="translate(127.246094 0)"/>
      </g>
     </g>
    </g>
    <g id="ytick_6">
     <g id="line2d_29">
      <path d="M 47.933438 45.45021 
L 623.673437 45.45021 
" clip-path="url(#pd4c76c515d)" style="fill: none; stroke-dasharray: 2.96,1.28; stroke-dashoffset: 0; stroke: #cbd5e1; stroke-opacity: 0.35; stroke-width: 0.8"/>
     </g>
     <g id="line2d_30">
      <g>
       <use xlink:href="#m4dc4f83a87" x="47.933438" y="45.45021" style="stroke: #000000; stroke-width: 0.8"/>
      </g>
     </g>
     <g id="text_16">
      <!-- 450 -->
      <g transform="translate(21.845938 49.249429) scale(0.1 -0.1)">
       <use xlink:href="#DejaVuSans-34"/>
       <use xlink:href="#DejaVuSans-35" transform="translate(63.623047 0)"/>
       <use xlink:href="#DejaVuSans-30" transform="translate(127.246094 0)"/>
      </g>
     </g>
    </g>
    <g id="text_17">
     <!-- Best Objective (Cut + Penalty) -->
     <g transform="translate(15.558281 252.069844) rotate(-90) scale(0.11 -0.11)">
      <defs>
       <path id="DejaVuSans-42" d="M 1259 2228 
L 1259 519 
L 2272 519 
Q 2781 519 3026 730 
Q 3272 941 3272 1375 
Q 3272 1813 3026 2020 
Q 2781 2228 2272 2228 
L 1259 2228 
z
M 1259 4147 
L 1259 2741 
L 2194 2741 
Q 2656 2741 2882 2914 
Q 3109 3088 3109 3444 
Q 3109 3797 2882 3972 
Q 2656 4147 2194 4147 
L 1259 4147 
z
M 628 4666 
L 2241 4666 
Q 2963 4666 3353 4366 
Q 3744 4066 3744 3513 
Q 3744 3084 3544 2831 
Q 3344 2578 2956 2516 
Q 3422 2416 3680 2098 
Q 3938 1781 3938 1306 
Q 3938 681 3513 340 
Q 3088 0 2303 0 
L 628 0 
L 628 4666 
z
" transform="scale(0.015625)"/>
       <path id="DejaVuSans-73" d="M 2834 3397 
L 2834 2853 
Q 2591 2978 2328 3040 
Q 2066 3103 1784 3103 
Q 1356 3103 1142 2972 
Q 928 2841 928 2578 
Q 928 2378 1081 2264 
Q 1234 2150 1697 2047 
L 1894 2003 
Q 2506 1872 2764 1633 
Q 3022 1394 3022 966 
Q 3022 478 2636 193 
Q 2250 -91 1575 -91 
Q 1294 -91 989 -36 
Q 684 19 347 128 
L 347 722 
Q 666 556 975 473 
Q 1284 391 1588 391 
Q 1994 391 2212 530 
Q 2431 669 2431 922 
Q 2431 1156 2273 1281 
Q 2116 1406 1581 1522 
L 1381 1569 
Q 847 1681 609 1914 
Q 372 2147 372 2553 
Q 372 3047 722 3315 
Q 1072 3584 1716 3584 
Q 2034 3584 2315 3537 
Q 2597 3491 2834 3397 
z
" transform="scale(0.015625)"/>
       <path id="DejaVuSans-20" transform="scale(0.015625)"/>
       <path id="DejaVuSans-4f" d="M 2522 4238 
Q 1834 4238 1429 3725 
Q 1025 3213 1025 2328 
Q 1025 1447 1429 934 
Q 1834 422 2522 422 
Q 3209 422 3611 934 
Q 4013 1447 4013 2328 
Q 4013 3213 3611 3725 
Q 3209 4238 2522 4238 
z
M 2522 4750 
Q 3503 4750 4090 4092 
Q 4678 3434 4678 2328 
Q 4678 1225 4090 567 
Q 3503 -91 2522 -91 
Q 1538 -91 948 565 
Q 359 1222 359 2328 
Q 359 3434 948 4092 
Q 1538 4750 2522 4750 
z
" transform="scale(0.015625)"/>
       <path id="DejaVuSans-62" d="M 3116 1747 
Q 3116 2381 2855 2742 
Q 2594 3103 2138 3103 
Q 1681 3103 1420 2742 
Q 1159 2381 1159 1747 
Q 1159 1113 1420 752 
Q 1681 391 2138 391 
Q 2594 391 2855 752 
Q 3116 1113 3116 1747 
z
M 1159 2969 
Q 1341 3281 1617 3432 
Q 1894 3584 2278 3584 
Q 2916 3584 3314 3078 
Q 3713 2572 3713 1747 
Q 3713 922 3314 415 
Q 2916 -91 2278 -91 
Q 1894 -91 1617 61 
Q 1341 213 1159 525 
L 1159 0 
L 581 0 
L 581 4863 
L 1159 4863 
L 1159 2969 
z
" transform="scale(0.015625)"/>
       <path id="DejaVuSans-6a" d="M 603 3500 
L 1178 3500 
L 1178 -63 
Q 1178 -731 923 -1031 
Q 669 -1331 103 -1331 
L -116 -1331 
L -116 -844 
L 38 -844 
Q 366 -844 484 -692 
Q 603 -541 603 -63 
L 603 3500 
z
M 603 4863 
L 1178 4863 
L 1178 4134 
L 603 4134 
L 603 4863 
z
" transform="scale(0.015625)"/>
       <path id="DejaVuSans-63" d="M 3122 3366 
L 3122 2828 
Q 2878 2963 2633 3030 
Q 2388 3097 2138 3097 
Q 1578 3097 1268 2742 
Q 959 2388 959 1747 
Q 959 1106 1268 751 
Q 1578 397 2138 397 
Q 2388 397 2633 464 
Q 2878 531 3122 666 
L 3122 134 
Q 2881 22 2623 -34 
Q 2366 -91 2075 -91 
Q 1284 -91 818 406 
Q 353 903 353 1747 
Q 353 2603 823 3093 
Q 1294 3584 2113 3584 
Q 2378 3584 2631 3529 
Q 2884 3475 3122 3366 
z
" transform="scale(0.015625)"/>
       <path id="DejaVuSans-76" d="M 191 3500 
L 800 3500 
L 1894 563 
L 2988 3500 
L 3597 3500 
L 2284 0 
L 1503 0 
L 191 3500 
z
" transform="scale(0.015625)"/>
       <path id="DejaVuSans-28" d="M 1984 4856 
Q 1566 4138 1362 3434 
Q 1159 2731 1159 2009 
Q 1159 1288 1364 580 
Q 1569 -128 1984 -844 
L 1484 -844 
Q 1016 -109 783 600 
Q 550 1309 550 2009 
Q 550 2706 781 3412 
Q 1013 4119 1484 4856 
L 1984 4856 
z
" transform="scale(0.015625)"/>
       <path id="DejaVuSans-43" d="M 4122 4306 
L 4122 3641 
Q 3803 3938 3442 4084 
Q 3081 4231 2675 4231 
Q 1875 4231 1450 3742 
Q 1025 3253 1025 2328 
Q 1025 1406 1450 917 
Q 1875 428 2675 428 
Q 3081 428 3442 575 
Q 3803 722 4122 1019 
L 4122 359 
Q 3791 134 3420 21 
Q 3050 -91 2638 -91 
Q 1578 -91 968 557 
Q 359 1206 359 2328 
Q 359 3453 968 4101 
Q 1578 4750 2638 4750 
Q 3056 4750 3426 4639 
Q 3797 4528 4122 4306 
z
" transform="scale(0.015625)"/>
       <path id="DejaVuSans-75" d="M 544 1381 
L 544 3500 
L 1119 3500 
L 1119 1403 
Q 1119 906 1312 657 
Q 1506 409 1894 409 
Q 2359 409 2629 706 
Q 2900 1003 2900 1516 
L 2900 3500 
L 3475 3500 
L 3475 0 
L 2900 0 
L 2900 538 
Q 2691 219 2414 64 
Q 2138 -91 1772 -91 
Q 1169 -91 856 284 
Q 544 659 544 1381 
z
M 1991 3584 
L 1991 3584 
z
" transform="scale(0.015625)"/>
       <path id="DejaVuSans-2b" d="M 2944 4013 
L 2944 2272 
L 4684 2272 
L 4684 1741 
L 2944 1741 
L 2944 0 
L 2419 0 
L 2419 1741 
L 678 1741 
L 678 2272 
L 2419 2272 
L 2419 4013 
L 2944 4013 
z
" transform="scale(0.015625)"/>
       <path id="DejaVuSans-50" d="M 1259 4147 
L 1259 2394 
L 2053 2394 
Q 2494 2394 2734 2622 
Q 2975 2850 2975 3272 
Q 2975 3691 2734 3919 
Q 2494 4147 2053 4147 
L 1259 4147 
z
M 628 4666 
L 2053 4666 
Q 2838 4666 3239 4311 
Q 3641 3956 3641 3272 
Q 3641 2581 3239 2228 
Q 2838 1875 2053 1875 
L 1259 1875 
L 1259 0 
L 628 0 
L 628 4666 
z
" transform="scale(0.015625)"/>
       <path id="DejaVuSans-6c" d="M 603 4863 
L 1178 4863 
L 1178 0 
L 603 0 
L 603 4863 
z
" transform="scale(0.015625)"/>
       <path id="DejaVuSans-79" d="M 2059 -325 
Q 1816 -950 1584 -1140 
Q 1353 -1331 966 -1331 
L 506 -1331 
L 506 -850 
L 844 -850 
Q 1081 -850 1212 -737 
Q 1344 -625 1503 -206 
L 1606 56 
L 191 3500 
L 800 3500 
L 1894 763 
L 2988 3500 
L 3597 3500 
L 2059 -325 
z
" transform="scale(0.015625)"/>
       <path id="DejaVuSans-29" d="M 513 4856 
L 1013 4856 
Q 1481 4119 1714 3412 
Q 1947 2706 1947 2009 
Q 1947 1309 1714 600 
Q 1481 -109 1013 -844 
L 513 -844 
Q 928 -128 1133 580 
Q 1338 1288 1338 2009 
Q 1338 2731 1133 3434 
Q 928 4138 513 4856 
z
" transform="scale(0.015625)"/>
      </defs>
      <use xlink:href="#DejaVuSans-42"/>
      <use xlink:href="#DejaVuSans-65" transform="translate(68.603516 0)"/>
      <use xlink:href="#DejaVuSans-73" transform="translate(130.126953 0)"/>
      <use xlink:href="#DejaVuSans-74" transform="translate(182.226562 0)"/>
      <use xlink:href="#DejaVuSans-20" transform="translate(221.435547 0)"/>
      <use xlink:href="#DejaVuSans-4f" transform="translate(253.222656 0)"/>
      <use xlink:href="#DejaVuSans-62" transform="translate(331.933594 0)"/>
      <use xlink:href="#DejaVuSans-6a" transform="translate(395.410156 0)"/>
      <use xlink:href="#DejaVuSans-65" transform="translate(423.193359 0)"/>
      <use xlink:href="#DejaVuSans-63" transform="translate(484.716797 0)"/>
      <use xlink:href="#DejaVuSans-74" transform="translate(539.697266 0)"/>
      <use xlink:href="#DejaVuSans-69" transform="translate(578.90625 0)"/>
      <use xlink:href="#DejaVuSans-76" transform="translate(606.689453 0)"/>
      <use xlink:href="#DejaVuSans-65" transform="translate(665.869141 0)"/>
      <use xlink:href="#DejaVuSans-20" transform="translate(727.392578 0)"/>
      <use xlink:href="#DejaVuSans-28" transform="translate(759.179688 0)"/>
      <use xlink:href="#DejaVuSans-43" transform="translate(798.193359 0)"/>
      <use xlink:href="#DejaVuSans-75" transform="translate(868.017578 0)"/>
      <use xlink:href="#DejaVuSans-74" transform="translate(931.396484 0)"/>
      <use xlink:href="#DejaVuSans-20" transform="translate(970.605469 0)"/>
      <use xlink:href="#DejaVuSans-2b" transform="translate(1002.392578 0)"/>
      <use xlink:href="#DejaVuSans-20" transform="translate(1086.181641 0)"/>
      <use xlink:href="#DejaVuSans-50" transform="translate(1117.96875 0)"/>
      <use xlink:href="#DejaVuSans-65" transform="translate(1174.646484 0)"/>
      <use xlink:href="#DejaVuSans-6e" transform="translate(1236.169922 0)"/>
      <use xlink:href="#DejaVuSans-61" transform="translate(1299.548828 0)"/>
      <use xlink:href="#DejaVuSans-6c" transform="translate(1360.828125 0)"/>
      <use xlink:href="#DejaVuSans-74" transform="translate(1388.611328 0)"/>
      <use xlink:href="#DejaVuSans-79" transform="translate(1427.820312 0)"/>
      <use xlink:href="#DejaVuSans-29" transform="translate(1487 0)"/>
     </g>
    </g>
   </g>
   <g id="line2d_31">
    <path d="M 47.933438 73.353798 
L 50.812138 78.979863 
L 56.569538 92.866177 
L 59.448238 97.76663 
L 62.326938 104.125306 
L 65.205638 107.785793 
L 68.084338 111.041778 
L 70.963038 118.890313 
L 73.841738 123.982726 
L 76.720438 127.187891 
L 82.477838 136.925478 
L 85.356538 142.673595 
L 91.113938 149.069444 
L 93.992638 155.567286 
L 96.871338 158.43679 
L 99.750038 163.874229 
L 102.628738 166.870611 
L 105.507438 171.039542 
L 108.386138 172.846362 
L 111.264838 177.300797 
L 114.143538 179.091524 
L 119.900938 185.914606 
L 122.779638 191.063862 
L 125.658338 192.250072 
L 128.537037 194.715055 
L 131.415738 197.394702 
L 134.294438 201.453942 
L 137.173138 203.259281 
L 140.051838 206.216943 
L 142.930538 208.587352 
L 145.809238 209.675043 
L 148.687938 213.379856 
L 154.445338 216.795258 
L 157.324038 219.941289 
L 163.081438 223.695054 
L 165.960138 225.735719 
L 168.838838 228.432211 
L 174.596238 230.742605 
L 177.474938 234.094622 
L 180.353638 234.585706 
L 186.111038 238.691426 
L 188.989738 239.044036 
L 191.868438 241.201361 
L 194.747138 243.60614 
L 197.625838 244.516918 
L 200.504538 245.743283 
L 203.383238 247.46157 
L 206.261938 248.470788 
L 209.140638 250.090443 
L 214.898038 252.071665 
L 217.776738 254.055115 
L 220.655438 254.925229 
L 223.534138 256.300718 
L 226.412838 257.219915 
L 229.291538 258.726391 
L 235.048938 260.490471 
L 237.927638 261.166657 
L 240.806338 262.074871 
L 243.685038 263.712454 
L 246.563738 264.478088 
L 249.442438 264.987352 
L 252.321138 266.532856 
L 255.199838 266.984227 
L 258.078538 267.713897 
L 260.957238 268.194281 
L 269.593338 270.833312 
L 272.472038 271.520061 
L 275.350738 271.851375 
L 278.229438 272.921325 
L 281.108138 273.55127 
L 283.986838 274.06487 
L 292.622938 276.133276 
L 295.501638 276.513886 
L 298.380338 277.138923 
L 301.259038 277.421531 
L 307.016438 278.644343 
L 309.895138 279.039414 
L 312.773838 279.667078 
L 315.652538 279.943134 
L 318.531238 280.544667 
L 321.409938 280.911448 
L 324.288638 281.581887 
L 327.167338 281.795153 
L 330.046038 282.447492 
L 332.924738 282.878736 
L 335.803438 283.061876 
L 338.682138 283.501275 
L 344.439538 283.887715 
L 347.318238 284.549974 
L 361.711738 286.069589 
L 367.469138 286.582905 
L 370.347838 286.98518 
L 376.105238 287.427265 
L 378.983938 287.76163 
L 381.862638 287.910758 
L 384.741338 288.229331 
L 387.620038 288.335475 
L 396.256138 289.099807 
L 399.134838 289.278119 
L 402.013538 289.592022 
L 407.770938 289.841236 
L 410.649638 290.164042 
L 413.528338 290.183795 
L 416.407038 290.494962 
L 419.285738 290.537909 
L 422.164438 290.783632 
L 427.921838 291.055473 
L 430.800538 291.283543 
L 433.679238 291.308775 
L 465.344938 292.793305 
L 468.223638 292.819404 
L 476.859738 293.159935 
L 488.374538 293.524895 
L 508.525438 294.09517 
L 520.040237 294.344959 
L 543.069838 294.803117 
L 597.765138 295.532558 
L 623.673437 295.786134 
L 623.673437 295.786134 
" clip-path="url(#pd4c76c515d)" style="fill: none; stroke: #1f77b4; stroke-width: 1.6; stroke-linecap: square"/>
   </g>
   <g id="line2d_32">
    <path d="M 47.933438 53.149026 
L 50.812138 58.812263 
L 53.690838 63.006963 
L 56.569538 66.035392 
L 59.448238 71.421084 
L 62.326938 80.399914 
L 65.205638 85.686912 
L 68.084338 85.976763 
L 70.963038 93.114385 
L 73.841738 95.708451 
L 76.720438 98.504025 
L 79.599138 106.138219 
L 82.477838 110.645128 
L 85.356538 111.076511 
L 91.113938 119.137641 
L 93.992638 122.323614 
L 96.871338 126.962982 
L 99.750038 131.168265 
L 102.628738 132.81485 
L 105.507438 137.039815 
L 108.386138 140.995639 
L 111.264838 141.613812 
L 114.143538 145.318786 
L 117.022238 147.793662 
L 119.900938 152.226318 
L 122.779638 154.716514 
L 125.658338 157.850561 
L 128.537037 160.453231 
L 131.415738 162.048623 
L 134.294438 165.613644 
L 137.173138 167.088923 
L 140.051838 169.618516 
L 142.930538 170.56097 
L 145.809238 176.009667 
L 148.687938 176.365584 
L 151.566638 179.501901 
L 154.445338 181.684183 
L 157.324038 185.038992 
L 160.202738 186.382313 
L 163.081438 187.548471 
L 165.960138 190.241137 
L 168.838838 192.131177 
L 171.717538 194.369406 
L 174.596238 195.269056 
L 177.474938 197.98342 
L 180.353638 201.299229 
L 183.232338 202.071604 
L 188.989738 207.160387 
L 191.868438 207.160387 
L 194.747138 207.632352 
L 200.504538 212.314407 
L 203.383238 213.713416 
L 206.261938 214.064374 
L 209.140638 216.084817 
L 214.898038 219.059816 
L 217.776738 220.396858 
L 220.655438 221.370292 
L 226.412838 224.288599 
L 229.291538 226.144065 
L 232.170238 226.666392 
L 235.048938 228.416768 
L 237.927638 228.822477 
L 240.806338 231.001305 
L 243.685038 231.652788 
L 246.563738 232.70937 
L 249.442438 234.321448 
L 252.321138 234.321448 
L 255.199838 235.338851 
L 258.078538 237.086675 
L 260.957238 237.626948 
L 263.835938 238.747073 
L 266.714638 240.748221 
L 269.593338 240.748221 
L 275.350738 242.542101 
L 278.229438 243.786155 
L 281.108138 244.378985 
L 283.986838 245.183857 
L 286.865538 245.589717 
L 289.744238 246.64636 
L 292.622938 247.527277 
L 295.501638 247.861122 
L 298.380338 249.190007 
L 301.259038 249.873584 
L 304.137738 250.961577 
L 307.016438 250.961577 
L 315.652538 253.033301 
L 318.531238 253.809189 
L 321.409938 254.412522 
L 324.288638 255.1322 
L 330.046038 256.250757 
L 332.924738 256.518068 
L 338.682138 257.959602 
L 344.439538 259.133689 
L 347.318238 259.222985 
L 350.196938 259.93515 
L 358.833038 261.665252 
L 364.590438 262.240571 
L 367.469138 262.889586 
L 376.105238 264.075607 
L 378.983938 264.732106 
L 381.862638 264.925182 
L 384.741338 265.398659 
L 387.620038 265.532795 
L 390.498738 266.129895 
L 396.256138 266.542968 
L 399.134838 267.12697 
L 402.013538 267.500541 
L 404.892238 267.733782 
L 410.649638 268.513745 
L 416.407038 268.78724 
L 419.285738 269.33652 
L 433.679238 270.806164 
L 436.557938 270.836099 
L 439.436638 271.297189 
L 442.315338 271.36276 
L 445.194038 271.56879 
L 448.072738 271.920487 
L 456.708838 272.643097 
L 462.466238 273.164415 
L 468.223638 273.360511 
L 479.738438 274.279152 
L 488.374538 274.76764 
L 505.646738 275.726113 
L 508.525438 275.801483 
L 517.161538 276.422263 
L 520.040237 276.453189 
L 522.918938 276.703203 
L 592.007737 279.097417 
L 623.673437 279.84322 
L 623.673437 279.84322 
" clip-path="url(#pd4c76c515d)" style="fill: none; stroke: #ff7f0e; stroke-width: 1.6; stroke-linecap: square"/>
   </g>
   <g id="line2d_33">
    <path d="M 47.933438 64.755634 
L 50.812138 67.813546 
L 53.690838 74.796516 
L 56.569538 82.615498 
L 59.448238 87.308292 
L 62.326938 89.510433 
L 65.205638 95.055787 
L 68.084338 103.607349 
L 70.963038 103.607349 
L 73.841738 109.083475 
L 76.720438 112.518649 
L 79.599138 119.389365 
L 82.477838 123.52868 
L 85.356538 128.803751 
L 88.235238 128.803751 
L 91.113938 135.544612 
L 93.992638 137.20778 
L 96.871338 143.746578 
L 99.750038 146.443588 
L 102.628738 152.159433 
L 108.386138 156.055192 
L 111.264838 161.809977 
L 114.143538 162.590345 
L 117.022238 166.534727 
L 119.900938 171.006675 
L 122.779638 173.46609 
L 125.658338 176.351233 
L 128.537037 178.827072 
L 131.415738 182.058604 
L 134.294438 185.027738 
L 137.173138 187.21971 
L 140.051838 190.409355 
L 142.930538 193.130579 
L 145.809238 194.583421 
L 148.687938 196.265408 
L 151.566638 200.452493 
L 154.445338 201.580815 
L 157.324038 204.282251 
L 160.202738 206.676425 
L 163.081438 207.529039 
L 165.960138 210.529002 
L 168.838838 211.22658 
L 171.717538 214.666201 
L 174.596238 215.852116 
L 180.353638 220.235404 
L 183.232338 221.235258 
L 186.111038 223.397404 
L 188.989738 224.67567 
L 191.868438 226.683456 
L 194.747138 228.834823 
L 197.625838 229.894419 
L 200.504538 231.350464 
L 203.383238 232.409526 
L 206.261938 234.756772 
L 209.140638 235.771207 
L 212.019338 237.911158 
L 214.898038 238.209712 
L 217.776738 240.274203 
L 220.655438 241.851038 
L 223.534138 242.380689 
L 226.412838 243.144634 
L 229.291538 245.362599 
L 235.048938 247.348627 
L 237.927638 248.587884 
L 240.806338 249.132741 
L 243.685038 250.593302 
L 246.563738 251.585997 
L 249.442438 252.160808 
L 252.321138 253.565397 
L 255.199838 254.147743 
L 258.078538 255.502285 
L 263.835938 257.526482 
L 266.714638 257.526482 
L 269.593338 258.794238 
L 272.472038 259.463576 
L 275.350738 260.336707 
L 281.108138 261.858783 
L 283.986838 262.156677 
L 286.865538 263.580735 
L 289.744238 264.399358 
L 292.622938 264.958432 
L 295.501638 265.69485 
L 298.380338 265.903171 
L 301.259038 266.531188 
L 304.137738 267.517039 
L 307.016438 268.204487 
L 309.895138 268.592759 
L 312.773838 268.843854 
L 315.652538 270.180389 
L 318.531238 270.180389 
L 321.409938 270.940453 
L 324.288638 271.102093 
L 327.167338 271.965561 
L 330.046038 272.331802 
L 332.924738 273.007387 
L 335.803438 273.394347 
L 338.682138 273.500581 
L 350.196938 275.698462 
L 353.075638 275.902588 
L 361.711738 277.025705 
L 364.590438 277.516503 
L 367.469138 277.750483 
L 370.347838 278.098 
L 376.105238 278.568627 
L 378.983938 279.109369 
L 381.862638 279.490877 
L 384.741338 279.728528 
L 390.498738 280.389016 
L 393.377438 280.611175 
L 396.256138 280.980135 
L 399.134838 281.105711 
L 404.892238 281.66454 
L 413.528338 282.501031 
L 422.164438 283.098679 
L 436.557938 284.19312 
L 439.436638 284.36469 
L 442.315338 284.659867 
L 445.194038 284.711945 
L 471.102338 286.231824 
L 476.859738 286.450364 
L 491.253238 287.084278 
L 508.525438 287.756311 
L 531.555038 288.57811 
L 537.312437 288.705233 
L 540.191138 288.847134 
L 543.069838 288.850347 
L 548.827238 289.041809 
L 623.673437 290.417242 
L 623.673437 290.417242 
" clip-path="url(#pd4c76c515d)" style="fill: none; stroke: #2ca02c; stroke-width: 1.6; stroke-linecap: square"/>
   </g>
   <g id="line2d_34">
    <path d="M 47.933438 35.574489 
L 50.812138 44.033039 
L 53.690838 46.283983 
L 59.448238 56.226796 
L 62.326938 62.959394 
L 65.205638 64.049196 
L 68.084338 66.292831 
L 70.963038 71.303409 
L 73.841738 76.922132 
L 76.720438 80.011045 
L 79.599138 82.779361 
L 82.477838 91.792196 
L 85.356538 91.792196 
L 88.235238 94.448411 
L 91.113938 97.891487 
L 93.992638 100.081807 
L 96.871338 104.353871 
L 99.750038 108.859821 
L 102.628738 112.222473 
L 105.507438 114.900287 
L 108.386138 119.75105 
L 111.264838 122.286524 
L 114.143538 124.258325 
L 117.022238 126.09247 
L 119.900938 131.488891 
L 122.779638 134.267366 
L 125.658338 136.845793 
L 128.537037 138.424351 
L 131.415738 142.618814 
L 134.294438 143.768353 
L 137.173138 148.864236 
L 140.051838 150.655513 
L 142.930538 153.188749 
L 145.809238 154.732102 
L 148.687938 156.933905 
L 151.566638 161.644571 
L 154.445338 163.421011 
L 157.324038 164.600543 
L 160.202738 167.695003 
L 163.081438 170.601191 
L 165.960138 170.629469 
L 168.838838 173.192855 
L 171.717538 175.268784 
L 174.596238 178.050428 
L 177.474938 178.891662 
L 180.353638 181.794885 
L 183.232338 182.728672 
L 186.111038 186.045586 
L 188.989738 187.82622 
L 191.868438 188.887123 
L 194.747138 191.260115 
L 197.625838 192.071683 
L 200.504538 194.040881 
L 203.383238 196.450801 
L 206.261938 197.448874 
L 209.140638 199.301336 
L 212.019338 200.105741 
L 214.898038 202.551164 
L 217.776738 203.934587 
L 220.655438 204.476375 
L 223.534138 205.367955 
L 226.412838 206.935134 
L 229.291538 209.363825 
L 232.170238 210.642395 
L 235.048938 211.309623 
L 237.927638 213.454099 
L 240.806338 215.147175 
L 243.685038 215.869724 
L 246.563738 216.943346 
L 249.442438 218.73986 
L 252.321138 220.280701 
L 255.199838 221.331259 
L 258.078538 221.545121 
L 260.957238 223.265961 
L 266.714638 225.017017 
L 269.593338 225.903976 
L 272.472038 227.3085 
L 275.350738 227.992804 
L 278.229438 229.50463 
L 281.108138 230.270366 
L 283.986838 231.454615 
L 286.865538 231.613546 
L 289.744238 232.93385 
L 292.622938 234.068261 
L 298.380338 235.621809 
L 301.259038 236.165752 
L 304.137738 237.714489 
L 309.895138 238.927073 
L 312.773838 238.927073 
L 318.531238 241.126758 
L 321.409938 241.62775 
L 324.288638 241.98099 
L 327.167338 243.306735 
L 330.046038 244.028457 
L 332.924738 244.295702 
L 335.803438 245.143792 
L 338.682138 245.750652 
L 341.560838 246.674555 
L 344.439538 246.718061 
L 347.318238 247.387349 
L 350.196938 248.254045 
L 353.075638 248.816611 
L 355.954338 249.98798 
L 358.833038 249.98798 
L 361.711738 250.7008 
L 367.469138 251.59407 
L 373.226538 253.090094 
L 376.105238 253.191645 
L 378.983938 253.889767 
L 381.862638 254.291989 
L 387.620038 255.22356 
L 390.498738 256.013389 
L 393.377438 256.013389 
L 396.256138 256.451491 
L 402.013538 257.021975 
L 407.770938 258.422095 
L 410.649638 258.67375 
L 413.528338 259.102346 
L 419.285738 259.661937 
L 422.164438 260.312702 
L 425.043138 260.345352 
L 427.921838 260.940903 
L 430.800538 261.043439 
L 436.557938 261.784675 
L 445.194038 262.764122 
L 448.072738 263.189324 
L 453.830138 263.378773 
L 459.587538 264.007846 
L 465.344938 264.761009 
L 468.223638 264.810503 
L 471.102338 265.219073 
L 491.253238 266.915838 
L 494.131938 266.915838 
L 497.010638 267.325443 
L 502.768038 267.696453 
L 505.646738 267.886864 
L 508.525438 268.225262 
L 517.161538 268.695637 
L 520.040237 268.890212 
L 522.918938 268.972317 
L 525.797638 269.301168 
L 534.433738 269.670371 
L 537.312437 270.049007 
L 545.948538 270.359062 
L 577.614238 271.96926 
L 589.129037 272.299244 
L 594.886438 272.652601 
L 609.279938 273.127951 
L 612.158638 273.27358 
L 615.037338 273.27358 
L 623.673437 273.565921 
L 623.673437 273.565921 
" clip-path="url(#pd4c76c515d)" style="fill: none; stroke: #d62728; stroke-width: 1.6; stroke-linecap: square"/>
   </g>
   <g id="line2d_35">
    <path d="M 47.933438 44.275085 
L 50.812138 50.880178 
L 53.690838 54.126928 
L 56.569538 60.837294 
L 62.326938 71.043731 
L 65.205638 78.985716 
L 68.084338 81.6761 
L 70.963038 86.498043 
L 73.841738 90.357659 
L 76.720438 97.150794 
L 79.599138 97.151125 
L 82.477838 103.634162 
L 85.356538 109.625429 
L 88.235238 114.336168 
L 91.113938 116.388003 
L 93.992638 120.027422 
L 96.871338 124.621819 
L 99.750038 127.32417 
L 102.628738 131.842887 
L 105.507438 133.976715 
L 108.386138 138.927666 
L 111.264838 141.531823 
L 114.143538 143.731117 
L 117.022238 145.289291 
L 119.900938 152.265295 
L 122.779638 154.780021 
L 125.658338 158.16847 
L 128.537037 159.51773 
L 131.415738 164.268363 
L 134.294438 166.446467 
L 137.173138 168.779705 
L 140.051838 172.320383 
L 142.930538 174.916163 
L 145.809238 177.061536 
L 148.687938 180.919567 
L 151.566638 182.806036 
L 154.445338 184.361858 
L 157.324038 186.26673 
L 160.202738 188.817384 
L 163.081438 192.23416 
L 168.838838 194.686742 
L 171.717538 196.960416 
L 177.474938 201.975735 
L 180.353638 202.935068 
L 183.232338 205.617125 
L 186.111038 207.838525 
L 188.989738 209.424052 
L 191.868438 209.869066 
L 194.747138 212.336702 
L 197.625838 213.512902 
L 200.504538 216.091546 
L 203.383238 216.949071 
L 206.261938 219.357136 
L 209.140638 220.674142 
L 212.019338 220.863301 
L 214.898038 223.216457 
L 217.776738 225.281012 
L 223.534138 227.690871 
L 226.412838 228.651014 
L 229.291538 230.727003 
L 232.170238 232.547913 
L 235.048938 233.183068 
L 240.806338 235.461047 
L 243.685038 236.169727 
L 246.563738 237.712851 
L 249.442438 238.655833 
L 252.321138 240.457492 
L 255.199838 240.823303 
L 258.078538 241.453774 
L 260.957238 242.945075 
L 263.835938 244.125772 
L 266.714638 245.139726 
L 269.593338 245.581365 
L 272.472038 247.369703 
L 278.229438 248.755021 
L 281.108138 249.54952 
L 283.986838 250.741244 
L 286.865538 251.367179 
L 289.744238 252.341946 
L 292.622938 253.031909 
L 295.501638 253.87611 
L 298.380338 254.890027 
L 304.137738 255.86223 
L 307.016438 257.010001 
L 312.773838 258.00598 
L 315.652538 259.052145 
L 318.531238 259.42627 
L 321.409938 260.320127 
L 324.288638 260.484792 
L 327.167338 260.859073 
L 330.046038 261.517048 
L 332.924738 262.531115 
L 335.803438 262.91538 
L 338.682138 263.582719 
L 341.560838 264.125382 
L 344.439538 264.400676 
L 347.318238 265.409117 
L 350.196938 265.512111 
L 353.075638 266.186959 
L 355.954338 266.435613 
L 361.711738 267.689292 
L 367.469138 268.366993 
L 370.347838 268.896611 
L 373.226538 269.252527 
L 378.983938 270.410307 
L 381.862638 270.410307 
L 390.498738 271.629576 
L 393.377438 271.871942 
L 396.256138 272.39461 
L 402.013538 273.035265 
L 404.892238 273.211679 
L 407.770938 273.802427 
L 410.649638 273.844833 
L 413.528338 274.334339 
L 416.407038 274.674378 
L 419.285738 274.735477 
L 425.043138 275.534485 
L 433.679238 276.106335 
L 436.557938 276.495901 
L 442.315338 276.890797 
L 445.194038 277.233253 
L 450.951438 277.640338 
L 456.708838 278.107343 
L 465.344938 278.725184 
L 482.617138 279.764011 
L 485.495838 279.840512 
L 488.374538 280.180816 
L 491.253238 280.254709 
L 494.131938 280.474233 
L 497.010638 280.517618 
L 499.889338 280.679669 
L 502.768038 281.009791 
L 514.282838 281.442181 
L 520.040237 281.717634 
L 528.676338 282.067048 
L 531.555038 282.314369 
L 534.433738 282.317375 
L 537.312437 282.492876 
L 540.191138 282.529597 
L 545.948538 282.808403 
L 551.705938 283.011137 
L 577.614238 283.79118 
L 606.401237 284.500428 
L 617.916038 284.763888 
L 623.673437 284.863152 
L 623.673437 284.863152 
" clip-path="url(#pd4c76c515d)" style="fill: none; stroke: #9467bd; stroke-width: 1.6; stroke-linecap: square"/>
   </g>
   <g id="line2d_36">
    <path d="M 47.933438 56.097364 
L 50.812138 63.561298 
L 53.690838 72.214925 
L 56.569538 77.300866 
L 59.448238 81.366281 
L 62.326938 87.311813 
L 65.205638 92.510908 
L 68.084338 98.078488 
L 70.963038 105.282805 
L 73.841738 107.671411 
L 76.720438 115.187767 
L 79.599138 116.032976 
L 82.477838 121.971363 
L 85.356538 126.248165 
L 91.113938 133.258582 
L 93.992638 139.351907 
L 96.871338 143.575331 
L 99.750038 146.516582 
L 102.628738 151.285099 
L 105.507438 153.634826 
L 108.386138 154.356754 
L 111.264838 160.59634 
L 114.143538 162.148596 
L 117.022238 167.424922 
L 119.900938 168.926628 
L 122.779638 172.598057 
L 125.658338 175.350002 
L 128.537037 177.70628 
L 131.415738 179.527408 
L 134.294438 183.672857 
L 137.173138 186.438668 
L 140.051838 189.963762 
L 142.930538 191.281697 
L 145.809238 194.431242 
L 148.687938 196.055164 
L 151.566638 199.08368 
L 154.445338 200.126861 
L 157.324038 204.991244 
L 160.202738 206.013397 
L 163.081438 207.372722 
L 165.960138 210.261263 
L 168.838838 212.561824 
L 171.717538 214.207645 
L 174.596238 216.79153 
L 177.474938 217.783438 
L 180.353638 218.309305 
L 183.232338 220.837806 
L 186.111038 223.795162 
L 188.989738 225.350149 
L 191.868438 226.750268 
L 194.747138 227.655926 
L 197.625838 230.113314 
L 200.504538 231.567226 
L 203.383238 232.325714 
L 206.261938 233.793347 
L 209.140638 235.751592 
L 212.019338 237.436782 
L 214.898038 238.942184 
L 217.776738 239.889708 
L 220.655438 241.752998 
L 223.534138 241.834512 
L 226.412838 243.561255 
L 232.170238 244.991649 
L 235.048938 246.363957 
L 237.927638 248.239701 
L 240.806338 248.631545 
L 243.685038 249.580104 
L 246.563738 251.185067 
L 249.442438 252.222108 
L 252.321138 252.922392 
L 255.199838 254.279336 
L 258.078538 254.318026 
L 260.957238 256.265253 
L 263.835938 256.765824 
L 266.714638 257.381338 
L 272.472038 258.885009 
L 275.350738 259.636929 
L 278.229438 260.507413 
L 281.108138 260.936992 
L 283.986838 262.384254 
L 286.865538 262.611604 
L 289.744238 263.442649 
L 292.622938 263.929841 
L 295.501638 264.559862 
L 298.380338 265.410695 
L 301.259038 265.969123 
L 304.137738 266.300687 
L 309.895138 267.716241 
L 312.773838 267.803864 
L 315.652538 268.30737 
L 318.531238 269.451732 
L 324.288638 269.841537 
L 327.167338 270.59509 
L 335.803438 272.171332 
L 350.196938 274.230376 
L 353.075638 274.703549 
L 355.954338 274.941853 
L 358.833038 275.40158 
L 367.469138 276.303263 
L 387.620038 278.56835 
L 390.498738 278.635766 
L 396.256138 279.336358 
L 413.528338 280.75777 
L 416.407038 281.072927 
L 419.285738 281.180305 
L 422.164438 281.466063 
L 427.921838 281.671535 
L 436.557938 282.334858 
L 439.436638 282.372367 
L 445.194038 282.807674 
L 453.830138 283.222936 
L 459.587538 283.566401 
L 494.131938 285.063266 
L 502.768038 285.409279 
L 508.525438 285.602454 
L 514.282838 285.756008 
L 522.918938 286.011904 
L 577.614238 287.236647 
L 623.673437 287.903191 
L 623.673437 287.903191 
" clip-path="url(#pd4c76c515d)" style="fill: none; stroke: #8c564b; stroke-width: 1.6; stroke-linecap: square"/>
   </g>
   <g id="line2d_37">
    <path d="M 47.933438 68.743234 
L 50.812138 73.117627 
L 53.690838 78.842411 
L 56.569538 86.430069 
L 59.448238 92.161219 
L 62.326938 98.600289 
L 65.205638 101.874428 
L 68.084338 108.013103 
L 70.963038 111.708022 
L 73.841738 114.912053 
L 76.720438 122.236216 
L 79.599138 128.856693 
L 82.477838 132.419256 
L 85.356538 137.525622 
L 88.235238 141.38092 
L 91.113938 142.361238 
L 93.992638 147.72322 
L 96.871338 153.693232 
L 99.750038 154.963143 
L 102.628738 158.010901 
L 105.507438 163.409843 
L 108.386138 167.241973 
L 111.264838 170.290628 
L 114.143538 172.984025 
L 117.022238 175.881701 
L 119.900938 178.534378 
L 125.658338 184.640345 
L 128.537037 187.419142 
L 131.415738 190.873744 
L 134.294438 195.455049 
L 137.173138 196.972206 
L 140.051838 199.227855 
L 142.930538 202.30425 
L 145.809238 203.805114 
L 148.687938 207.146977 
L 151.566638 209.87846 
L 154.445338 210.515456 
L 157.324038 213.278159 
L 160.202738 215.738246 
L 163.081438 217.39587 
L 165.960138 219.372768 
L 168.838838 221.812396 
L 171.717538 225.385758 
L 174.596238 226.222721 
L 177.474938 227.927115 
L 180.353638 229.990487 
L 186.111038 232.286481 
L 188.989738 234.781223 
L 191.868438 236.691975 
L 194.747138 236.753595 
L 197.625838 239.431312 
L 200.504538 241.252333 
L 203.383238 242.040587 
L 206.261938 243.365283 
L 209.140638 245.197693 
L 212.019338 245.920458 
L 214.898038 247.71756 
L 217.776738 249.135027 
L 220.655438 249.944405 
L 223.534138 250.925563 
L 226.412838 252.58275 
L 229.291538 253.378376 
L 232.170238 254.620432 
L 235.048938 254.750616 
L 237.927638 256.922157 
L 240.806338 257.291858 
L 243.685038 258.71564 
L 246.563738 259.696843 
L 249.442438 260.391969 
L 255.199838 262.0525 
L 260.957238 264.242067 
L 263.835938 265.039157 
L 266.714638 265.580098 
L 269.593338 266.340378 
L 272.472038 266.911934 
L 275.350738 267.86924 
L 281.108138 269.05255 
L 286.865538 270.997058 
L 292.622938 272.236365 
L 295.501638 272.283156 
L 298.380338 273.31462 
L 301.259038 273.525997 
L 304.137738 274.199902 
L 307.016438 274.562137 
L 315.652538 276.421599 
L 321.409938 277.330997 
L 324.288638 277.893161 
L 327.167338 278.274479 
L 330.046038 278.496491 
L 332.924738 279.354628 
L 335.803438 279.519412 
L 338.682138 280.066774 
L 344.439538 280.636849 
L 347.318238 281.113333 
L 350.196938 281.385668 
L 353.075638 281.992721 
L 355.954338 282.053251 
L 358.833038 282.56356 
L 361.711738 282.767825 
L 364.590438 283.128813 
L 367.469138 283.695345 
L 373.226538 284.029097 
L 376.105238 284.200251 
L 378.983938 284.586721 
L 381.862638 284.859665 
L 384.741338 285.254909 
L 387.620038 285.288953 
L 390.498738 285.51265 
L 393.377438 285.888109 
L 399.134838 286.467312 
L 404.892238 286.619711 
L 407.770938 286.962471 
L 413.528338 287.382018 
L 416.407038 287.667748 
L 419.285738 287.72355 
L 422.164438 288.053544 
L 430.800538 288.465392 
L 442.315338 289.20803 
L 448.072738 289.473712 
L 459.587538 290.057842 
L 508.525438 291.77037 
L 551.705938 292.773743 
L 560.342038 292.879035 
L 615.037338 293.651159 
L 623.673437 293.723168 
L 623.673437 293.723168 
" clip-path="url(#pd4c76c515d)" style="fill: none; stroke: #e377c2; stroke-width: 1.6; stroke-linecap: square"/>
   </g>
   <g id="line2d_38">
    <path d="M 47.933438 78.209848 
L 50.812138 81.11926 
L 53.690838 88.734451 
L 56.569538 97.297967 
L 59.448238 101.257032 
L 62.326938 110.352112 
L 65.205638 115.306012 
L 68.084338 118.920944 
L 70.963038 127.458848 
L 73.841738 131.22809 
L 76.720438 137.689028 
L 82.477838 143.380996 
L 85.356538 151.050487 
L 88.235238 154.29423 
L 91.113938 159.969934 
L 93.992638 164.43587 
L 96.871338 168.575871 
L 99.750038 169.580115 
L 102.628738 172.516696 
L 105.507438 178.240328 
L 108.386138 183.064272 
L 111.264838 185.190774 
L 114.143538 189.590684 
L 117.022238 191.862383 
L 119.900938 195.543933 
L 122.779638 198.677768 
L 125.658338 201.438254 
L 128.537037 205.341412 
L 131.415738 208.039564 
L 134.294438 211.790528 
L 137.173138 213.495482 
L 140.051838 216.787554 
L 142.930538 218.400705 
L 145.809238 221.394757 
L 148.687938 223.065613 
L 151.566638 225.154041 
L 154.445338 228.551712 
L 157.324038 230.339326 
L 160.202738 232.510255 
L 163.081438 233.595078 
L 165.960138 235.072748 
L 171.717538 239.979637 
L 174.596238 240.888844 
L 177.474938 244.109698 
L 180.353638 244.388164 
L 186.111038 249.586154 
L 188.989738 249.586154 
L 191.868438 250.785881 
L 194.747138 253.32882 
L 197.625838 254.275754 
L 200.504538 255.809669 
L 203.383238 257.036147 
L 206.261938 258.909467 
L 209.140638 259.882935 
L 212.019338 260.718867 
L 214.898038 261.996952 
L 217.776738 262.847722 
L 220.655438 264.327067 
L 223.534138 264.741142 
L 226.412838 266.70791 
L 229.291538 267.454859 
L 232.170238 269.047178 
L 235.048938 269.8235 
L 237.927638 270.089281 
L 240.806338 271.576517 
L 243.685038 272.097181 
L 249.442438 274.154009 
L 252.321138 274.800996 
L 258.078538 276.370469 
L 260.957238 276.855145 
L 263.835938 277.596099 
L 266.714638 278.529309 
L 269.593338 279.261807 
L 272.472038 279.698621 
L 275.350738 280.402176 
L 281.108138 281.165223 
L 283.986838 282.047001 
L 286.865538 282.750029 
L 298.380338 284.974978 
L 307.016438 286.157657 
L 309.895138 286.742475 
L 312.773838 287.147626 
L 315.652538 287.681181 
L 318.531238 287.764858 
L 321.409938 288.285945 
L 324.288638 288.53534 
L 327.167338 289.011769 
L 330.046038 289.305452 
L 332.924738 289.824481 
L 338.682138 290.224566 
L 341.560838 290.893265 
L 344.439538 290.996326 
L 347.318238 291.256633 
L 350.196938 291.653892 
L 355.954338 292.148508 
L 358.833038 292.55969 
L 361.711738 292.73974 
L 364.590438 293.08095 
L 381.862638 294.459569 
L 384.741338 294.466949 
L 393.377438 295.172767 
L 407.770938 295.970588 
L 410.649638 296.032099 
L 413.528338 296.387572 
L 416.407038 296.414919 
L 427.921838 297.041331 
L 436.557938 297.371132 
L 450.951438 297.932353 
L 459.587538 298.17696 
L 473.981038 298.630691 
L 479.738438 298.797762 
L 508.525438 299.416794 
L 548.827238 300.060369 
L 568.978138 300.25772 
L 592.007737 300.497316 
L 623.673437 300.701761 
L 623.673437 300.701761 
" clip-path="url(#pd4c76c515d)" style="fill: none; stroke: #7f7f7f; stroke-width: 1.6; stroke-linecap: square"/>
   </g>
   <g id="patch_3">
    <path d="M 47.933438 313.958125 
L 47.933438 22.318125 
" style="fill: none; stroke: #000000; stroke-width: 1.1; stroke-linejoin: miter; stroke-linecap: square"/>
   </g>
   <g id="patch_4">
    <path d="M 47.933438 313.958125 
L 623.673437 313.958125 
" style="fill: none; stroke: #000000; stroke-width: 1.1; stroke-linejoin: miter; stroke-linecap: square"/>
   </g>
   <g id="text_18">
    <!-- Convergence Curves — ISCAS'85 c880, k=2, balance=0.10 -->
    <g transform="translate(139.97 16.318125) scale(0.12 -0.12)">
     <defs>
      <path id="DejaVuSans-Bold-43" d="M 4288 256 
Q 3956 84 3597 -3 
Q 3238 -91 2847 -91 
Q 1681 -91 1000 561 
Q 319 1213 319 2328 
Q 319 3447 1000 4098 
Q 1681 4750 2847 4750 
Q 3238 4750 3597 4662 
Q 3956 4575 4288 4403 
L 4288 3438 
Q 3953 3666 3628 3772 
Q 3303 3878 2944 3878 
Q 2300 3878 1931 3465 
Q 1563 3053 1563 2328 
Q 1563 1606 1931 1193 
Q 2300 781 2944 781 
Q 3303 781 3628 887 
Q 3953 994 4288 1222 
L 4288 256 
z
" transform="scale(0.015625)"/>
      <path id="DejaVuSans-Bold-6f" d="M 2203 2784 
Q 1831 2784 1636 2517 
Q 1441 2250 1441 1747 
Q 1441 1244 1636 976 
Q 1831 709 2203 709 
Q 2569 709 2762 976 
Q 2956 1244 2956 1747 
Q 2956 2250 2762 2517 
Q 2569 2784 2203 2784 
z
M 2203 3584 
Q 3106 3584 3614 3096 
Q 4122 2609 4122 1747 
Q 4122 884 3614 396 
Q 3106 -91 2203 -91 
Q 1297 -91 786 396 
Q 275 884 275 1747 
Q 275 2609 786 3096 
Q 1297 3584 2203 3584 
z
" transform="scale(0.015625)"/>
      <path id="DejaVuSans-Bold-6e" d="M 4056 2131 
L 4056 0 
L 2931 0 
L 2931 347 
L 2931 1631 
Q 2931 2084 2911 2256 
Q 2891 2428 2841 2509 
Q 2775 2619 2662 2680 
Q 2550 2741 2406 2741 
Q 2056 2741 1856 2470 
Q 1656 2200 1656 1722 
L 1656 0 
L 538 0 
L 538 3500 
L 1656 3500 
L 1656 2988 
Q 1909 3294 2193 3439 
Q 2478 3584 2822 3584 
Q 3428 3584 3742 3212 
Q 4056 2841 4056 2131 
z
" transform="scale(0.015625)"/>
      <path id="DejaVuSans-Bold-76" d="M 97 3500 
L 1216 3500 
L 2088 1081 
L 2956 3500 
L 4078 3500 
L 2700 0 
L 1472 0 
L 97 3500 
z
" transform="scale(0.015625)"/>
      <path id="DejaVuSans-Bold-65" d="M 4031 1759 
L 4031 1441 
L 1416 1441 
Q 1456 1047 1700 850 
Q 1944 653 2381 653 
Q 2734 653 3104 758 
Q 3475 863 3866 1075 
L 3866 213 
Q 3469 63 3072 -14 
Q 2675 -91 2278 -91 
Q 1328 -91 801 392 
Q 275 875 275 1747 
Q 275 2603 792 3093 
Q 1309 3584 2216 3584 
Q 3041 3584 3536 3087 
Q 4031 2591 4031 1759 
z
M 2881 2131 
Q 2881 2450 2695 2645 
Q 2509 2841 2209 2841 
Q 1884 2841 1681 2658 
Q 1478 2475 1428 2131 
L 2881 2131 
z
" transform="scale(0.015625)"/>
      <path id="DejaVuSans-Bold-72" d="M 3138 2547 
Q 2991 2616 2845 2648 
Q 2700 2681 2553 2681 
Q 2122 2681 1889 2404 
Q 1656 2128 1656 1613 
L 1656 0 
L 538 0 
L 538 3500 
L 1656 3500 
L 1656 2925 
Q 1872 3269 2151 3426 
Q 2431 3584 2822 3584 
Q 2878 3584 2943 3579 
Q 3009 3575 3134 3559 
L 3138 2547 
z
" transform="scale(0.015625)"/>
      <path id="DejaVuSans-Bold-67" d="M 2919 594 
Q 2688 288 2409 144 
Q 2131 0 1766 0 
Q 1125 0 706 504 
Q 288 1009 288 1791 
Q 288 2575 706 3076 
Q 1125 3578 1766 3578 
Q 2131 3578 2409 3434 
Q 2688 3291 2919 2981 
L 2919 3500 
L 4044 3500 
L 4044 353 
Q 4044 -491 3511 -936 
Q 2978 -1381 1966 -1381 
Q 1638 -1381 1331 -1331 
Q 1025 -1281 716 -1178 
L 716 -306 
Q 1009 -475 1290 -558 
Q 1572 -641 1856 -641 
Q 2406 -641 2662 -400 
Q 2919 -159 2919 353 
L 2919 594 
z
M 2181 2772 
Q 1834 2772 1640 2515 
Q 1447 2259 1447 1791 
Q 1447 1309 1634 1061 
Q 1822 813 2181 813 
Q 2531 813 2725 1069 
Q 2919 1325 2919 1791 
Q 2919 2259 2725 2515 
Q 2531 2772 2181 2772 
z
" transform="scale(0.015625)"/>
      <path id="DejaVuSans-Bold-63" d="M 3366 3391 
L 3366 2478 
Q 3138 2634 2908 2709 
Q 2678 2784 2431 2784 
Q 1963 2784 1702 2511 
Q 1441 2238 1441 1747 
Q 1441 1256 1702 982 
Q 1963 709 2431 709 
Q 2694 709 2930 787 
Q 3166 866 3366 1019 
L 3366 103 
Q 3103 6 2833 -42 
Q 2563 -91 2291 -91 
Q 1344 -91 809 395 
Q 275 881 275 1747 
Q 275 2613 809 3098 
Q 1344 3584 2291 3584 
Q 2566 3584 2833 3536 
Q 3100 3488 3366 3391 
z
" transform="scale(0.015625)"/>
      <path id="DejaVuSans-Bold-20" transform="scale(0.015625)"/>
      <path id="DejaVuSans-Bold-75" d="M 500 1363 
L 500 3500 
L 1625 3500 
L 1625 3150 
Q 1625 2866 1622 2436 
Q 1619 2006 1619 1863 
Q 1619 1441 1641 1255 
Q 1663 1069 1716 984 
Q 1784 875 1895 815 
Q 2006 756 2150 756 
Q 2500 756 2700 1025 
Q 2900 1294 2900 1772 
L 2900 3500 
L 4019 3500 
L 4019 0 
L 2900 0 
L 2900 506 
Q 2647 200 2364 54 
Q 2081 -91 1741 -91 
Q 1134 -91 817 281 
Q 500 653 500 1363 
z
" transform="scale(0.015625)"/>
      <path id="DejaVuSans-Bold-73" d="M 3272 3391 
L 3272 2541 
Q 2913 2691 2578 2766 
Q 2244 2841 1947 2841 
Q 1628 2841 1473 2761 
Q 1319 2681 1319 2516 
Q 1319 2381 1436 2309 
Q 1553 2238 1856 2203 
L 2053 2175 
Q 2913 2066 3209 1816 
Q 3506 1566 3506 1031 
Q 3506 472 3093 190 
Q 2681 -91 1863 -91 
Q 1516 -91 1145 -36 
Q 775 19 384 128 
L 384 978 
Q 719 816 1070 734 
Q 1422 653 1784 653 
Q 2113 653 2278 743 
Q 2444 834 2444 1013 
Q 2444 1163 2330 1236 
Q 2216 1309 1875 1350 
L 1678 1375 
Q 931 1469 631 1722 
Q 331 1975 331 2491 
Q 331 3047 712 3315 
Q 1094 3584 1881 3584 
Q 2191 3584 2531 3537 
Q 2872 3491 3272 3391 
z
" transform="scale(0.015625)"/>
      <path id="DejaVuSans-Bold-2014" d="M 344 2156 
L 6056 2156 
L 6056 1350 
L 344 1350 
L 344 2156 
z
" transform="scale(0.015625)"/>
      <path id="DejaVuSans-Bold-49" d="M 588 4666 
L 1791 4666 
L 1791 0 
L 588 0 
L 588 4666 
z
" transform="scale(0.015625)"/>
      <path id="DejaVuSans-Bold-53" d="M 3834 4519 
L 3834 3531 
Q 3450 3703 3084 3790 
Q 2719 3878 2394 3878 
Q 1963 3878 1756 3759 
Q 1550 3641 1550 3391 
Q 1550 3203 1689 3098 
Q 1828 2994 2194 2919 
L 2706 2816 
Q 3484 2659 3812 2340 
Q 4141 2022 4141 1434 
Q 4141 663 3683 286 
Q 3225 -91 2284 -91 
Q 1841 -91 1394 -6 
Q 947 78 500 244 
L 500 1259 
Q 947 1022 1364 901 
Q 1781 781 2169 781 
Q 2563 781 2772 912 
Q 2981 1044 2981 1288 
Q 2981 1506 2839 1625 
Q 2697 1744 2272 1838 
L 1806 1941 
Q 1106 2091 782 2419 
Q 459 2747 459 3303 
Q 459 4000 909 4375 
Q 1359 4750 2203 4750 
Q 2588 4750 2994 4692 
Q 3400 4634 3834 4519 
z
" transform="scale(0.015625)"/>
      <path id="DejaVuSans-Bold-41" d="M 3419 850 
L 1538 850 
L 1241 0 
L 31 0 
L 1759 4666 
L 3194 4666 
L 4922 0 
L 3713 0 
L 3419 850 
z
M 1838 1716 
L 3116 1716 
L 2478 3572 
L 1838 1716 
z
" transform="scale(0.015625)"/>
      <path id="DejaVuSans-Bold-27" d="M 1350 4666 
L 1350 2931 
L 609 2931 
L 609 4666 
L 1350 4666 
z
" transform="scale(0.015625)"/>
      <path id="DejaVuSans-Bold-38" d="M 2228 2088 
Q 1891 2088 1709 1903 
Q 1528 1719 1528 1375 
Q 1528 1031 1709 848 
Q 1891 666 2228 666 
Q 2563 666 2741 848 
Q 2919 1031 2919 1375 
Q 2919 1722 2741 1905 
Q 2563 2088 2228 2088 
z
M 1350 2484 
Q 925 2613 709 2878 
Q 494 3144 494 3541 
Q 494 4131 934 4440 
Q 1375 4750 2228 4750 
Q 3075 4750 3515 4442 
Q 3956 4134 3956 3541 
Q 3956 3144 3739 2878 
Q 3522 2613 3097 2484 
Q 3572 2353 3814 2058 
Q 4056 1763 4056 1313 
Q 4056 619 3595 264 
Q 3134 -91 2228 -91 
Q 1319 -91 855 264 
Q 391 619 391 1313 
Q 391 1763 633 2058 
Q 875 2353 1350 2484 
z
M 1631 3419 
Q 1631 3141 1786 2991 
Q 1941 2841 2228 2841 
Q 2509 2841 2662 2991 
Q 2816 3141 2816 3419 
Q 2816 3697 2662 3845 
Q 2509 3994 2228 3994 
Q 1941 3994 1786 3844 
Q 1631 3694 1631 3419 
z
" transform="scale(0.015625)"/>
      <path id="DejaVuSans-Bold-35" d="M 678 4666 
L 3669 4666 
L 3669 3781 
L 1638 3781 
L 1638 3059 
Q 1775 3097 1914 3117 
Q 2053 3138 2203 3138 
Q 3056 3138 3531 2711 
Q 4006 2284 4006 1522 
Q 4006 766 3489 337 
Q 2972 -91 2053 -91 
Q 1656 -91 1267 -14 
Q 878 63 494 219 
L 494 1166 
Q 875 947 1217 837 
Q 1559 728 1863 728 
Q 2300 728 2551 942 
Q 2803 1156 2803 1522 
Q 2803 1891 2551 2103 
Q 2300 2316 1863 2316 
Q 1603 2316 1309 2248 
Q 1016 2181 678 2041 
L 678 4666 
z
" transform="scale(0.015625)"/>
      <path id="DejaVuSans-Bold-30" d="M 2944 2338 
Q 2944 3213 2780 3570 
Q 2616 3928 2228 3928 
Q 1841 3928 1675 3570 
Q 1509 3213 1509 2338 
Q 1509 1453 1675 1090 
Q 1841 728 2228 728 
Q 2613 728 2778 1090 
Q 2944 1453 2944 2338 
z
M 4147 2328 
Q 4147 1169 3647 539 
Q 3147 -91 2228 -91 
Q 1306 -91 806 539 
Q 306 1169 306 2328 
Q 306 3491 806 4120 
Q 1306 4750 2228 4750 
Q 3147 4750 3647 4120 
Q 4147 3491 4147 2328 
z
" transform="scale(0.015625)"/>
      <path id="DejaVuSans-Bold-2c" d="M 653 1209 
L 1778 1209 
L 1778 256 
L 1006 -909 
L 341 -909 
L 653 256 
L 653 1209 
z
" transform="scale(0.015625)"/>
      <path id="DejaVuSans-Bold-6b" d="M 538 4863 
L 1656 4863 
L 1656 2216 
L 2944 3500 
L 4244 3500 
L 2534 1894 
L 4378 0 
L 3022 0 
L 1656 1459 
L 1656 0 
L 538 0 
L 538 4863 
z
" transform="scale(0.015625)"/>
      <path id="DejaVuSans-Bold-3d" d="M 678 3084 
L 4684 3084 
L 4684 2350 
L 678 2350 
L 678 3084 
z
M 678 1663 
L 4684 1663 
L 4684 922 
L 678 922 
L 678 1663 
z
" transform="scale(0.015625)"/>
      <path id="DejaVuSans-Bold-32" d="M 1844 884 
L 3897 884 
L 3897 0 
L 506 0 
L 506 884 
L 2209 2388 
Q 2438 2594 2547 2791 
Q 2656 2988 2656 3200 
Q 2656 3528 2436 3728 
Q 2216 3928 1850 3928 
Q 1569 3928 1234 3808 
Q 900 3688 519 3450 
L 519 4475 
Q 925 4609 1322 4679 
Q 1719 4750 2100 4750 
Q 2938 4750 3402 4381 
Q 3866 4013 3866 3353 
Q 3866 2972 3669 2642 
Q 3472 2313 2841 1759 
L 1844 884 
z
" transform="scale(0.015625)"/>
      <path id="DejaVuSans-Bold-62" d="M 2400 722 
Q 2759 722 2948 984 
Q 3138 1247 3138 1747 
Q 3138 2247 2948 2509 
Q 2759 2772 2400 2772 
Q 2041 2772 1848 2508 
Q 1656 2244 1656 1747 
Q 1656 1250 1848 986 
Q 2041 722 2400 722 
z
M 1656 2988 
Q 1888 3294 2169 3439 
Q 2450 3584 2816 3584 
Q 3463 3584 3878 3070 
Q 4294 2556 4294 1747 
Q 4294 938 3878 423 
Q 3463 -91 2816 -91 
Q 2450 -91 2169 54 
Q 1888 200 1656 506 
L 1656 0 
L 538 0 
L 538 4863 
L 1656 4863 
L 1656 2988 
z
" transform="scale(0.015625)"/>
      <path id="DejaVuSans-Bold-61" d="M 2106 1575 
Q 1756 1575 1579 1456 
Q 1403 1338 1403 1106 
Q 1403 894 1545 773 
Q 1688 653 1941 653 
Q 2256 653 2472 879 
Q 2688 1106 2688 1447 
L 2688 1575 
L 2106 1575 
z
M 3816 1997 
L 3816 0 
L 2688 0 
L 2688 519 
Q 2463 200 2181 54 
Q 1900 -91 1497 -91 
Q 953 -91 614 226 
Q 275 544 275 1050 
Q 275 1666 698 1953 
Q 1122 2241 2028 2241 
L 2688 2241 
L 2688 2328 
Q 2688 2594 2478 2717 
Q 2269 2841 1825 2841 
Q 1466 2841 1156 2769 
Q 847 2697 581 2553 
L 581 3406 
Q 941 3494 1303 3539 
Q 1666 3584 2028 3584 
Q 2975 3584 3395 3211 
Q 3816 2838 3816 1997 
z
" transform="scale(0.015625)"/>
      <path id="DejaVuSans-Bold-6c" d="M 538 4863 
L 1656 4863 
L 1656 0 
L 538 0 
L 538 4863 
z
" transform="scale(0.015625)"/>
      <path id="DejaVuSans-Bold-2e" d="M 653 1209 
L 1778 1209 
L 1778 0 
L 653 0 
L 653 1209 
z
" transform="scale(0.015625)"/>
      <path id="DejaVuSans-Bold-31" d="M 750 831 
L 1813 831 
L 1813 3847 
L 722 3622 
L 722 4441 
L 1806 4666 
L 2950 4666 
L 2950 831 
L 4013 831 
L 4013 0 
L 750 0 
L 750 831 
z
" transform="scale(0.015625)"/>
     </defs>
     <use xlink:href="#DejaVuSans-Bold-43"/>
     <use xlink:href="#DejaVuSans-Bold-6f" transform="translate(73.388672 0)"/>
     <use xlink:href="#DejaVuSans-Bold-6e" transform="translate(142.089844 0)"/>
     <use xlink:href="#DejaVuSans-Bold-76" transform="translate(213.28125 0)"/>
     <use xlink:href="#DejaVuSans-Bold-65" transform="translate(278.466797 0)"/>
     <use xlink:href="#DejaVuSans-Bold-72" transform="translate(346.289062 0)"/>
     <use xlink:href="#DejaVuSans-Bold-67" transform="translate(395.605469 0)"/>
     <use xlink:href="#DejaVuSans-Bold-65" transform="translate(467.1875 0)"/>
     <use xlink:href="#DejaVuSans-Bold-6e" transform="translate(535.009766 0)"/>
     <use xlink:href="#DejaVuSans-Bold-63" transform="translate(606.201172 0)"/>
     <use xlink:href="#DejaVuSans-Bold-65" transform="translate(665.478516 0)"/>
     <use xlink:href="#DejaVuSans-Bold-20" transform="translate(733.300781 0)"/>
     <use xlink:href="#DejaVuSans-Bold-43" transform="translate(768.115234 0)"/>
     <use xlink:href="#DejaVuSans-Bold-75" transform="translate(841.503906 0)"/>
     <use xlink:href="#DejaVuSans-Bold-72" transform="translate(912.695312 0)"/>
     <use xlink:href="#DejaVuSans-Bold-76" transform="translate(962.011719 0)"/>
     <use xlink:href="#DejaVuSans-Bold-65" transform="translate(1027.197266 0)"/>
     <use xlink:href="#DejaVuSans-Bold-73" transform="translate(1095.019531 0)"/>
     <use xlink:href="#DejaVuSans-Bold-20" transform="translate(1154.541016 0)"/>
     <use xlink:href="#DejaVuSans-Bold-2014" transform="translate(1189.355469 0)"/>
     <use xlink:href="#DejaVuSans-Bold-20" transform="translate(1289.355469 0)"/>
     <use xlink:href="#DejaVuSans-Bold-49" transform="translate(1324.169922 0)"/>
     <use xlink:href="#DejaVuSans-Bold-53" transform="translate(1361.376953 0)"/>
     <use xlink:href="#DejaVuSans-Bold-43" transform="translate(1433.398438 0)"/>
     <use xlink:href="#DejaVuSans-Bold-41" transform="translate(1506.787109 0)"/>
     <use xlink:href="#DejaVuSans-Bold-53" transform="translate(1584.179688 0)"/>
     <use xlink:href="#DejaVuSans-Bold-27" transform="translate(1656.201172 0)"/>
     <use xlink:href="#DejaVuSans-Bold-38" transform="translate(1686.816406 0)"/>
     <use xlink:href="#DejaVuSans-Bold-35" transform="translate(1756.396484 0)"/>
     <use xlink:href="#DejaVuSans-Bold-20" transform="translate(1825.976562 0)"/>
     <use xlink:href="#DejaVuSans-Bold-63" transform="translate(1860.791016 0)"/>
     <use xlink:href="#DejaVuSans-Bold-38" transform="translate(1920.068359 0)"/>
     <use xlink:href="#DejaVuSans-Bold-38" transform="translate(1989.648438 0)"/>
     <use xlink:href="#DejaVuSans-Bold-30" transform="translate(2059.228516 0)"/>
     <use xlink:href="#DejaVuSans-Bold-2c" transform="translate(2128.808594 0)"/>
     <use xlink:href="#DejaVuSans-Bold-20" transform="translate(2166.796875 0)"/>
     <use xlink:href="#DejaVuSans-Bold-6b" transform="translate(2201.611328 0)"/>
     <use xlink:href="#DejaVuSans-Bold-3d" transform="translate(2268.115234 0)"/>
     <use xlink:href="#DejaVuSans-Bold-32" transform="translate(2351.904297 0)"/>
     <use xlink:href="#DejaVuSans-Bold-2c" transform="translate(2421.484375 0)"/>
     <use xlink:href="#DejaVuSans-Bold-20" transform="translate(2459.472656 0)"/>
     <use xlink:href="#DejaVuSans-Bold-62" transform="translate(2494.287109 0)"/>
     <use xlink:href="#DejaVuSans-Bold-61" transform="translate(2565.869141 0)"/>
     <use xlink:href="#DejaVuSans-Bold-6c" transform="translate(2633.349609 0)"/>
     <use xlink:href="#DejaVuSans-Bold-61" transform="translate(2667.626953 0)"/>
     <use xlink:href="#DejaVuSans-Bold-6e" transform="translate(2735.107422 0)"/>
     <use xlink:href="#DejaVuSans-Bold-63" transform="translate(2806.298828 0)"/>
     <use xlink:href="#DejaVuSans-Bold-65" transform="translate(2865.576172 0)"/>
     <use xlink:href="#DejaVuSans-Bold-3d" transform="translate(2933.398438 0)"/>
     <use xlink:href="#DejaVuSans-Bold-30" transform="translate(3017.1875 0)"/>
     <use xlink:href="#DejaVuSans-Bold-2e" transform="translate(3086.767578 0)"/>
     <use xlink:href="#DejaVuSans-Bold-31" transform="translate(3124.755859 0)"/>
     <use xlink:href="#DejaVuSans-Bold-30" transform="translate(3194.335938 0)"/>
    </g>
   </g>
   <g id="legend_1">
    <g id="patch_5">
     <path d="M 379.486563 55.93875 
L 617.373438 55.93875 
Q 619.173438 55.93875 619.173438 54.13875 
L 619.173438 28.618125 
Q 619.173438 26.818125 617.373438 26.818125 
L 379.486563 26.818125 
Q 377.686563 26.818125 377.686563 28.618125 
L 377.686563 54.13875 
Q 377.686563 55.93875 379.486563 55.93875 
z
" style="fill: #ffffff; opacity: 0.9; stroke: #e2e8f0; stroke-linejoin: miter"/>
    </g>
    <g id="line2d_39">
     <path d="M 381.286563 34.106719 
L 390.286563 34.106719 
L 399.286563 34.106719 
" style="fill: none; stroke: #1f77b4; stroke-width: 1.6; stroke-linecap: square"/>
    </g>
    <g id="text_19">
     <!-- ABC -->
     <g transform="translate(406.486563 37.256719) scale(0.09 -0.09)">
      <defs>
       <path id="DejaVuSans-41" d="M 2188 4044 
L 1331 1722 
L 3047 1722 
L 2188 4044 
z
M 1831 4666 
L 2547 4666 
L 4325 0 
L 3669 0 
L 3244 1197 
L 1141 1197 
L 716 0 
L 50 0 
L 1831 4666 
z
" transform="scale(0.015625)"/>
      </defs>
      <use xlink:href="#DejaVuSans-41"/>
      <use xlink:href="#DejaVuSans-42" transform="translate(68.408203 0)"/>
      <use xlink:href="#DejaVuSans-43" transform="translate(135.261719 0)"/>
     </g>
    </g>
    <g id="line2d_40">
     <path d="M 381.286563 47.317031 
L 390.286563 47.317031 
L 399.286563 47.317031 
" style="fill: none; stroke: #ff7f0e; stroke-width: 1.6; stroke-linecap: square"/>
    </g>
    <g id="text_20">
     <!-- KH -->
     <g transform="translate(406.486563 50.467031) scale(0.09 -0.09)">
      <defs>
       <path id="DejaVuSans-4b" d="M 628 4666 
L 1259 4666 
L 1259 2694 
L 3353 4666 
L 4166 4666 
L 1850 2491 
L 4331 0 
L 3500 0 
L 1259 2247 
L 1259 0 
L 628 0 
L 628 4666 
z
" transform="scale(0.015625)"/>
       <path id="DejaVuSans-48" d="M 628 4666 
L 1259 4666 
L 1259 2753 
L 3553 2753 
L 3553 4666 
L 4184 4666 
L 4184 0 
L 3553 0 
L 3553 2222 
L 1259 2222 
L 1259 0 
L 628 0 
L 628 4666 
z
" transform="scale(0.015625)"/>
      </defs>
      <use xlink:href="#DejaVuSans-4b"/>
      <use xlink:href="#DejaVuSans-48" transform="translate(65.576172 0)"/>
     </g>
    </g>
    <g id="line2d_41">
     <path d="M 442.945 34.106719 
L 451.945 34.106719 
L 460.945 34.106719 
" style="fill: none; stroke: #2ca02c; stroke-width: 1.6; stroke-linecap: square"/>
    </g>
    <g id="text_21">
     <!-- MBO -->
     <g transform="translate(468.145 37.256719) scale(0.09 -0.09)">
      <defs>
       <path id="DejaVuSans-4d" d="M 628 4666 
L 1569 4666 
L 2759 1491 
L 3956 4666 
L 4897 4666 
L 4897 0 
L 4281 0 
L 4281 4097 
L 3078 897 
L 2444 897 
L 1241 4097 
L 1241 0 
L 628 0 
L 628 4666 
z
" transform="scale(0.015625)"/>
      </defs>
      <use xlink:href="#DejaVuSans-4d"/>
      <use xlink:href="#DejaVuSans-42" transform="translate(86.279297 0)"/>
      <use xlink:href="#DejaVuSans-4f" transform="translate(153.132812 0)"/>
     </g>
    </g>
    <g id="line2d_42">
     <path d="M 442.945 47.317031 
L 451.945 47.317031 
L 460.945 47.317031 
" style="fill: none; stroke: #d62728; stroke-width: 1.6; stroke-linecap: square"/>
    </g>
    <g id="text_22">
     <!-- EWA -->
     <g transform="translate(468.145 50.467031) scale(0.09 -0.09)">
      <defs>
       <path id="DejaVuSans-45" d="M 628 4666 
L 3578 4666 
L 3578 4134 
L 1259 4134 
L 1259 2753 
L 3481 2753 
L 3481 2222 
L 1259 2222 
L 1259 531 
L 3634 531 
L 3634 0 
L 628 0 
L 628 4666 
z
" transform="scale(0.015625)"/>
       <path id="DejaVuSans-57" d="M 213 4666 
L 850 4666 
L 1831 722 
L 2809 4666 
L 3519 4666 
L 4500 722 
L 5478 4666 
L 6119 4666 
L 4947 0 
L 4153 0 
L 3169 4050 
L 2175 0 
L 1381 0 
L 213 4666 
z
" transform="scale(0.015625)"/>
      </defs>
      <use xlink:href="#DejaVuSans-45"/>
      <use xlink:href="#DejaVuSans-57" transform="translate(63.183594 0)"/>
      <use xlink:href="#DejaVuSans-41" transform="translate(156.560547 0)"/>
     </g>
    </g>
    <g id="line2d_43">
     <path d="M 507.012344 34.106719 
L 516.012344 34.106719 
L 525.012344 34.106719 
" style="fill: none; stroke: #9467bd; stroke-width: 1.6; stroke-linecap: square"/>
    </g>
    <g id="text_23">
     <!-- EHO -->
     <g transform="translate(532.212344 37.256719) scale(0.09 -0.09)">
      <use xlink:href="#DejaVuSans-45"/>
      <use xlink:href="#DejaVuSans-48" transform="translate(63.183594 0)"/>
      <use xlink:href="#DejaVuSans-4f" transform="translate(138.378906 0)"/>
     </g>
    </g>
    <g id="line2d_44">
     <path d="M 507.012344 47.317031 
L 516.012344 47.317031 
L 525.012344 47.317031 
" style="fill: none; stroke: #8c564b; stroke-width: 1.6; stroke-linecap: square"/>
    </g>
    <g id="text_24">
     <!-- MS -->
     <g transform="translate(532.212344 50.467031) scale(0.09 -0.09)">
      <defs>
       <path id="DejaVuSans-53" d="M 3425 4513 
L 3425 3897 
Q 3066 4069 2747 4153 
Q 2428 4238 2131 4238 
Q 1616 4238 1336 4038 
Q 1056 3838 1056 3469 
Q 1056 3159 1242 3001 
Q 1428 2844 1947 2747 
L 2328 2669 
Q 3034 2534 3370 2195 
Q 3706 1856 3706 1288 
Q 3706 609 3251 259 
Q 2797 -91 1919 -91 
Q 1588 -91 1214 -16 
Q 841 59 441 206 
L 441 856 
Q 825 641 1194 531 
Q 1563 422 1919 422 
Q 2459 422 2753 634 
Q 3047 847 3047 1241 
Q 3047 1584 2836 1778 
Q 2625 1972 2144 2069 
L 1759 2144 
Q 1053 2284 737 2584 
Q 422 2884 422 3419 
Q 422 4038 858 4394 
Q 1294 4750 2059 4750 
Q 2388 4750 2728 4690 
Q 3069 4631 3425 4513 
z
" transform="scale(0.015625)"/>
      </defs>
      <use xlink:href="#DejaVuSans-4d"/>
      <use xlink:href="#DejaVuSans-53" transform="translate(86.279297 0)"/>
     </g>
    </g>
    <g id="line2d_45">
     <path d="M 569.752188 34.106719 
L 578.752188 34.106719 
L 587.752188 34.106719 
" style="fill: none; stroke: #e377c2; stroke-width: 1.6; stroke-linecap: square"/>
    </g>
    <g id="text_25">
     <!-- SMA -->
     <g transform="translate(594.952188 37.256719) scale(0.09 -0.09)">
      <use xlink:href="#DejaVuSans-53"/>
      <use xlink:href="#DejaVuSans-4d" transform="translate(63.476562 0)"/>
      <use xlink:href="#DejaVuSans-41" transform="translate(149.755859 0)"/>
     </g>
    </g>
    <g id="line2d_46">
     <path d="M 569.752188 47.317031 
L 578.752188 47.317031 
L 587.752188 47.317031 
" style="fill: none; stroke: #7f7f7f; stroke-width: 1.6; stroke-linecap: square"/>
    </g>
    <g id="text_26">
     <!-- HHO -->
     <g transform="translate(594.952188 50.467031) scale(0.09 -0.09)">
      <use xlink:href="#DejaVuSans-48"/>
      <use xlink:href="#DejaVuSans-48" transform="translate(75.195312 0)"/>
      <use xlink:href="#DejaVuSans-4f" transform="translate(150.390625 0)"/>
     </g>
    </g>
   </g>
  </g>
 </g>
 <defs>
  <clipPath id="pd4c76c515d">
   <rect x="47.933438" y="22.318125" width="575.74" height="291.64"/>
  </clipPath>
 </defs>
</svg>
